<?xml version="1.0" encoding="utf-8"?>
<!-- Generator: Adobe Illustrator 21.1.0, SVG Export Plug-In . SVG Version: 6.00 Build 0)  -->
<svg version="1.1" xmlns="http://www.w3.org/2000/svg" xmlns:xlink="http://www.w3.org/1999/xlink" x="0px" y="0px"
	 viewBox="0 0 1080 1080" style="enable-background:new 0 0 1080 1080;" xml:space="preserve">
<style type="text/css">
	.st0{opacity:0.75;fill:#F9A487;}
	.st1{display:none;}
	.st2{display:inline;}
	.st3{fill:#FFFFFF;stroke:#000000;stroke-width:3;stroke-linecap:round;stroke-linejoin:round;stroke-miterlimit:10;}
	.st4{fill:#FFFFFF;}
	.st5{fill:#B7B7B7;}
	.st6{fill:#A57E58;}
	.st7{opacity:0.6;fill:#FF4886;}
	.st8{stroke:#FFFFFF;stroke-width:2;stroke-linecap:round;stroke-linejoin:round;stroke-miterlimit:10;}
	.st9{stroke:#FFF189;stroke-width:2;stroke-miterlimit:10;}
	.st10{fill:#505063;stroke:#000000;stroke-width:3;stroke-miterlimit:10;}
	.st11{fill:#505063;}
	.st12{fill:#6887FC;}
	.st13{fill:#AAF2AC;}
	.st14{fill:#E84D23;}
	.st15{fill:#38933E;}
	.st16{fill:#F2DD1D;}
	.st17{opacity:0.4;fill:#FF1806;}
	.st18{fill:#FFDD15;}
	.st19{fill:#DDBC19;}
</style>
<g id="圖層_2">
	<rect x="-77" y="-19" class="st0" width="1186" height="1137"/>
</g>
<g id="圖層_1" class="st1">
	<g class="st2">
		<path class="st3" d="M369,584.1c-10.5-12-15.9-8.5-26.8-20.1c-10.5-11.2-28.5-37.3-34.4-51.8c-4.7-11.6-6.5-25.1-1.2-36.7
			c6.6-14.6,22.1-21.6,34.8-29.9c8.2-5.4,29.9-20.5,19.4-32c-0.8-0.9-1.9-1.6-3-2.3c-18.7-10.5-87,21.6-92,74.1
			c-3,32,15.2,59.7,33.9,83.8c5.3,6.8,10.8,13.5,16.8,19.7c10.9,11.3,23.9,21.4,38.8,26.8c0.6,0.2,1.2,0.4,1.8,0.2
			c0.5-0.1,0.9-0.5,1.3-0.9C364.9,608.7,377,593.3,369,584.1z"/>
		<g>
			<path class="st4" d="M522.1,756.5c-5-0.2-8.6-4.9-9.5-9.5l-4.3-22.2c-0.6-3.1,0.2-6.2,2.2-8.6c2-2.4,4.9-3.8,8-3.8
				c0.5,0,1,0,1.5,0.1l26.6,3.9c4.3,0.6,11.1,3.8,11.8,8.6c0,0.1,0,0.2,0,0.2l-0.2,19.2c0.4,2.9-0.5,5.9-2.4,8.2
				c-2,2.3-4.8,3.6-7.8,3.6c-0.1,0-0.2,0-0.3,0C547.7,756.2,522.2,756.5,522.1,756.5C522.2,756.5,522.2,756.5,522.1,756.5z"/>
			<path d="M518.5,714c0.4,0,0.9,0,1.3,0.1l26.6,3.9c3.9,0.6,10,3.4,10.5,7.3l-0.2,19.3c0.8,5.4-3.4,10.2-8.8,10.2
				c-0.1,0-0.2,0-0.3,0l-25.5,0.3c-4.1-0.1-7.2-4.2-8-8.3l-4.3-22.2C508.8,719,513.1,714,518.5,714 M518.5,711L518.5,711
				c-3.5,0-6.9,1.6-9.1,4.3c-2.3,2.7-3.2,6.3-2.5,9.8l4.3,22.2c1,5.2,5.1,10.5,10.9,10.7c0,0,0.1,0,0.1,0c0,0,0,0,0,0l25.5-0.3
				c0.1,0,0.2,0,0.3,0c3.5,0,6.7-1.5,9-4.1c2.2-2.6,3.2-5.9,2.8-9.2l0.2-19c0-0.2,0-0.3,0-0.5c-0.8-5.6-8.1-9.1-13.1-9.8l-26.6-3.9
				C519.7,711,519.1,711,518.5,711L518.5,711z"/>
		</g>
		<path class="st3" d="M648,369.4c-2-29.8,32.3-43.2,69.6-54.9c0,0,18,47.1,10.7,93.7C728.3,408.2,648.4,375.1,648,369.4z"/>
		<path class="st3" d="M512.8,377.4c5-29.5-33.7-44.7-69.6-60.2c0,0-14.5,58.1-12.1,105.2C431.2,422.4,511.9,383.1,512.8,377.4z"/>
		<g>
			<path class="st5" d="M452.6,348.6c0.4-4,5-6,8.3-3.6l16.2,12.2l16.2,12.2c3.2,2.4,2.7,7.5-1,9.1l-18.3,7.9l-18.3,7.9
				c-3.7,1.6-7.7-1.5-7.3-5.5l2.2-20.1L452.6,348.6z"/>
		</g>
		<g>
			<path class="st5" d="M700,344.3c3.5-2,7.8,0.5,7.8,4.6l-0.4,20.2l-0.4,20.2c-0.1,4.1-4.5,6.6-7.9,4.5l-17.2-10.2l-17.2-10.2
				c-3.5-2-3.4-7.1,0.2-9.1l17.6-10L700,344.3z"/>
		</g>
		<g>
			<path class="st4" d="M363.1,767c-3.7,0-7.9-0.3-11.1-2.4c-4.5-2.9-7.1-8.8-9.2-13.5l-0.4-0.9c-12.1-26.9-17.4-71.6-15.9-132.8
				c0.4-17.2,1.5-35.4,9.1-53.2c1.9-4.5,4.7-10.2,9.3-14.8c5.1-5.2,12.3-8.9,22.1-11.3c9.5-2.3,20.3-4.3,34-6.1
				c4.2-0.6,7.3-2.2,9.4-4.9c4.1-5.5,3.4-14.7,2-23.7c-3.6-23.1-2.6-46.5,2.8-67.5c5.2-20.2,12.9-35.6,23.6-47.1
				c12.5-13.4,31.1-25.1,49.7-31.1c16.2-5.3,33.3-8,49.4-10.1c14.6-2,29.1-2.9,45.6-2.9c7.6,0,15.7,0.2,25.6,0.6
				c39.5,1.6,71.7,12.5,95.7,32.5c34.1,28.5,50.6,71.8,45.3,118.9c-1.8,15.7-3.4,22.3-5.7,31.4c-1.4,5.7-3,12.1-5,22.3
				c-0.4,2.1-0.8,4-1.2,5.9c-3.5,17.4-5.7,27.9-4,46.4c4.1,45-10.3,118.8-15.7,146.5c-0.4,2.1-0.8,4-1.1,5.5c-0.4,2.2-1,5-2.7,7.2
				c-3.6,4.4-16.4,5.1-23.7,5.1h-15.8c-3.5,0-6.4-2.6-6.8-6.1l-0.8-24.7H535.2l0.5,23.4c0,0.1,0,0.1,0,0.2c-0.4,4.1-3.8,7.1-7.9,7.1
				h-41.2c-4,0-7.5-2.7-8.4-6.7c-1.9-7.8-5-20.3-6-24.1h-77.7l-1.3,24.9c0,3.2-2.7,5.9-6,5.9h-19.1c-0.8,0-1.6,0-2.4,0
				C365,767,364,767,363.1,767z"/>
			<path d="M583.3,346.2c8.3,0,16.7,0.2,25.5,0.6c33.8,1.4,68.3,10.1,94.8,32.2c35.2,29.4,49.8,72.8,44.7,117.6
				c-2.9,25.3-5.4,26.8-10.7,53.5c-4.1,20.7-7.1,31.9-5.2,52.8c4.4,48.2-12.4,129.1-16.7,151.7c-0.4,2.3-0.9,4.7-2.4,6.5
				c-3.4,4.1-17.5,4.5-22.5,4.5c-5.3,0-10.5,0-15.8,0c-2.7,0-5-2.1-5.3-4.8l-0.9-26H533.7l0.6,25c-0.3,3.3-3.1,5.8-6.4,5.8l-41.2,0
				c-3.3,0-6.2-2.3-6.9-5.5c-2.3-9.4-6.3-25.3-6.3-25.3h-80.3l-1.3,26.3c0,2.5-2,4.5-4.5,4.5c-6.4,0-12.7,0-19.1,0
				c-1.6,0-3.4,0.1-5.2,0.1c-3.6,0-7.5-0.3-10.3-2.2c-4.4-2.9-7-9.2-9-13.8c-9.9-22.1-17.5-62.3-15.8-132.1
				c0.4-18.2,1.7-35.6,9-52.6c2.2-5.2,5-10.3,8.9-14.3c5.7-5.8,13.5-9,21.4-10.9c11.1-2.7,22.5-4.6,33.8-6.1
				c16.2-2.1,14.5-18.7,12.7-30.4c-3.4-22.1-2.8-45.2,2.8-66.9c4.3-16.9,11.2-33.6,23.2-46.5c12.9-13.9,31.7-25.1,49.1-30.7
				c15.8-5.1,32.7-7.9,49.1-10.1C553.6,346.9,568.3,346.2,583.3,346.2 M583.3,343.2c-16.6,0-31.1,0.9-45.8,2.9
				c-16.1,2.2-33.3,4.9-49.6,10.2c-18.8,6.1-37.7,17.9-50.3,31.5c-10.9,11.7-18.7,27.3-23.9,47.8c-5.4,21.2-6.4,44.8-2.8,68.1
				c1.3,8.7,2.1,17.5-1.7,22.6c-1.8,2.4-4.5,3.8-8.4,4.3c-13.7,1.8-24.6,3.8-34.1,6.1c-10,2.5-17.5,6.3-22.8,11.7
				c-4.7,4.8-7.6,10.7-9.6,15.3c-7.8,18-8.8,36.4-9.2,53.7c-1.5,61.5,3.9,106.4,16.1,133.4l0.4,0.9c2.2,4.9,4.9,11,9.7,14.2
				c3.6,2.3,8,2.6,11.9,2.6c1,0,1.9,0,2.8,0c0.8,0,1.6,0,2.4,0h19.1c4.1,0,7.4-3.3,7.5-7.4l1.2-23.4h75.1c1.2,4.7,4,15.8,5.7,23
				c1.1,4.6,5.2,7.8,9.9,7.8l41.2,0c4.9,0,8.9-3.7,9.4-8.5c0-0.1,0-0.2,0-0.4l-0.5-21.9h129.2l0.8,23.1c0,0.1,0,0.1,0,0.2
				c0.4,4.3,4,7.5,8.2,7.5h15.8c9.2,0,21.1-1,24.9-5.6c2-2.4,2.6-5.6,3-7.8c0.3-1.6,0.7-3.4,1.1-5.5c5.4-27.8,19.8-101.7,15.7-147
				c-1.7-18.3,0.5-28.7,4-46c0.4-1.9,0.8-3.9,1.2-5.9c2-10.2,3.6-16.6,5-22.2c2.3-9.1,3.9-15.8,5.7-31.6
				c5.4-47.6-11.2-91.4-45.8-120.2c-12.8-10.6-28.1-18.9-45.6-24.4c-15.4-4.9-32.5-7.7-50.9-8.5
				C599.1,343.3,590.9,343.2,583.3,343.2L583.3,343.2z"/>
		</g>
		<g>
			<path class="st6" d="M537.9,349c-16.4,2.2-33.3,4.9-49.1,10.1c-17.4,5.6-36.2,16.8-49.1,30.7c-12,12.9-18.9,29.6-23.2,46.5
				c-5.6,21.7-6.2,44.8-2.8,66.9c0.6,3.8,1.2,8.1,1.1,12.3c8.8,1.1,17.8,1.7,27,1.7c94.2,0,170.6-61.4,170.6-137.2
				c0-11.5-1.8-22.7-5.1-33.4C583.4,345.7,561.9,345.8,537.9,349z"/>
		</g>
		<ellipse cx="582.4" cy="471.4" rx="9.4" ry="4.3"/>
		<path d="M523.5,452.6c-1.4,4.1-8.1,9.1-16.3,6.4c-8.2-2.8-14.8-12.3-13.4-16.4c1.4-4.1,9.2-5.2,17.3-2.4
			C519.3,442.9,524.8,448.5,523.5,452.6z"/>
		<path d="M651.1,453.2c1.5,4,10.4,7.8,18.5,4.7c8.1-3.1,12.3-11.7,10.8-15.8c-1.5-4-9.3-4.8-17.4-1.8
			C654.9,443.4,649.6,449.1,651.1,453.2z"/>
		<g>
			<g>
				<path d="M565.3,483.1c0.4,3.6,2.1,9.1,6.3,9.7c1.9,0.3,3.6-0.7,5.1-1.7c2.7-1.8,4.3-4.8,7.4-2.2c2.9,2.5,4.6,5.8,8.9,3.8
					c2.9-1.4,6.9-5.2,6.8-8.6c0-1.9-3-1.9-3,0c0,1.6-1.8,3.3-2.9,4.3c-2,1.8-3.3,2.6-5.5,0.8c-1.7-1.3-2.8-3.8-4.9-4.6
					c-2.1-0.7-3.6,0.4-5.2,1.6c-1.2,0.9-2.6,2.7-4.1,3c-4.4,1.1-5.5-3.1-5.9-6.1C568.1,481.2,565.1,481.2,565.3,483.1L565.3,483.1z"
					/>
			</g>
		</g>
		<path class="st6" d="M668.8,734.6l0.9,26c0.3,2.7,2.5,4.8,5.3,4.8c5.3,0,10.5,0,15.8,0c5.1,0,19.2-0.4,22.5-4.5
			c1.5-1.8,2-4.2,2.4-6.5c3.9-20.1,17.7-86.8,17.5-135.1c-13.3,2-26.8,4.6-39.6,8.7c-17.4,5.6-36.2,16.8-49.1,30.7
			c-12,12.9-18.9,29.6-23.2,46.5c-2.5,9.6-3.9,19.5-4.5,29.4H668.8z"/>
		<ellipse class="st7" cx="694.3" cy="471.4" rx="21.5" ry="10"/>
		<ellipse class="st7" cx="487.3" cy="470.1" rx="21.5" ry="10"/>
		<g>
			<g>
				<path d="M453.5,469.4c-21.2-6.2-44-7.9-65.9-5c-1.9,0.3-1.9,3.3,0,3c21.6-2.9,44.2-1.2,65.1,4.9
					C454.6,472.8,455.4,470,453.5,469.4L453.5,469.4z"/>
			</g>
		</g>
		<g>
			<g>
				<path d="M453.2,481.9c-25.3-5.8-51.6-3.3-75.4,7c-1.8,0.8-0.2,3.3,1.5,2.6c23-9.9,48.6-12.3,73.1-6.7
					C454.3,485.2,455.1,482.3,453.2,481.9L453.2,481.9z"/>
			</g>
		</g>
		<g>
			<g>
				<path d="M448,494.1c-12.1-2.3-25.6,1-37.4,3.9c-11.3,2.7-22.1,7.1-30.4,15.5c-1.4,1.4,0.8,3.5,2.1,2.1
					c7.9-8,18.3-12.1,29.1-14.7c11.2-2.7,24.3-6.1,35.8-3.9C449.1,497.4,449.9,494.5,448,494.1L448,494.1z"/>
			</g>
		</g>
		<g>
			<g>
				<path d="M736.7,465.6c24.5-3.2,49.2-3.8,73.8-1.9c1.9,0.2,1.9-2.8,0-3c-24.6-2-49.3-1.3-73.8,1.9
					C734.8,462.8,734.8,465.8,736.7,465.6L736.7,465.6z"/>
			</g>
		</g>
		<g>
			<g>
				<path d="M734.8,480.8c23.1-2.8,47.1-1.6,65.7,14.1c1.5,1.2,3.6-0.9,2.1-2.1c-19.2-16.2-43.8-17.8-67.8-14.9
					C732.9,478.1,732.9,481.1,734.8,480.8L734.8,480.8z"/>
			</g>
		</g>
		<g>
			<g>
				<path d="M737.5,496.9c23.3,1.9,43.4,14.9,62.5,27.4c1.6,1.1,3.1-1.5,1.5-2.6c-19.6-12.9-40.1-25.8-64-27.8
					C735.6,493.7,735.6,496.7,737.5,496.9L737.5,496.9z"/>
			</g>
		</g>
		<path class="st6" d="M328.5,605.2c-0.2,4.1-0.4,8.1-0.5,12.3c-1.6,64.3,4.7,103.5,13.5,126.5c12.8-14.9,20.4-31.3,17.4-51.1
			c-4.1-26.9-12.6-56.2-25.8-80.1C332.2,611.1,328.5,606.9,328.5,605.2z"/>
	</g>
</g>
<g id="圖層_6">
	<g>
		<g>
			<path class="st3" d="M107,363.8c-9.2-10.5-13.9-7.4-23.5-17.6c-9.2-9.8-25-32.7-30.2-45.4c-4.1-10.1-5.7-22-1-32.2
				c5.8-12.8,19.4-18.9,30.5-26.2c7.2-4.7,26.2-18,17-28c-0.7-0.8-1.6-1.4-2.6-2c-16.4-9.2-76.3,18.9-80.6,64.9
				C14,305.4,30,329.6,46.4,350.8c4.6,6,9.4,11.9,14.7,17.3c9.6,9.9,21,18.8,34,23.5c0.5,0.2,1.1,0.4,1.6,0.2
				c0.4-0.1,0.8-0.4,1.1-0.8C103.5,385.3,114.1,371.9,107,363.8z"/>
			<g>
				<path class="st4" d="M241.2,515.9c-4.9-0.2-8.4-4.7-9.2-9.1l-3.8-19.5c-0.6-3,0.2-6,2.1-8.3c1.9-2.3,4.7-3.7,7.7-3.7
					c0.5,0,1,0,1.5,0.1l23.3,3.4c4.2,0.6,10.5,3.6,11.2,8.3c0,0.1,0,0.2,0,0.4l-0.2,16.7c0.4,2.8-0.5,5.7-2.4,7.9
					c-1.9,2.2-4.7,3.5-7.6,3.5l-0.3,0C263.6,515.6,241.3,515.9,241.2,515.9C241.3,515.9,241.3,515.9,241.2,515.9z"/>
				<path d="M238.1,477.6c0.4,0,0.8,0,1.2,0.1l23.3,3.4c3.4,0.5,8.7,3,9.2,6.4l-0.2,16.9c0.7,4.7-3,8.9-7.7,8.9c-0.1,0-0.2,0-0.2,0
					l-22.4,0.3c-3.6-0.1-6.4-3.7-7-7.3l-3.8-19.5C229.6,482,233.3,477.6,238.1,477.6 M238.1,473L238.1,473c-3.7,0-7.2,1.6-9.5,4.5
					c-2.4,2.9-3.3,6.6-2.6,10.2l3.8,19.5c1,5.3,5.3,10.8,11.4,11c0,0,0.1,0,0.1,0c0,0,0,0,0.1,0l22.3-0.3c0.1,0,0.2,0,0.3,0
					c3.6,0,7-1.6,9.3-4.3c2.3-2.6,3.3-6.1,2.9-9.5l0.2-16.6c0-0.2,0-0.5,0-0.7c-0.9-6.2-8.5-9.6-13.1-10.3l-23.3-3.4
					C239.3,473.1,238.7,473,238.1,473L238.1,473z"/>
			</g>
			<path class="st3" d="M351.5,175.6c-1.7-26.2,28.3-37.8,61-48.1c0,0,15.8,41.3,9.4,82.1C421.9,209.6,351.9,180.6,351.5,175.6z"/>
			<path class="st3" d="M233.1,182.6c4.4-25.8-29.6-39.2-61-52.8c0,0-12.7,50.9-10.6,92.2C161.5,222,232.3,187.6,233.1,182.6z"/>
			<path class="st5" d="M180.3,157.4c0.4-3.5,4.4-5.3,7.3-3.1l14.2,10.7l14.2,10.7c2.8,2.1,2.4,6.6-0.9,8l-16.1,7l-16.1,7
				c-3.2,1.4-6.8-1.3-6.4-4.8l1.9-17.6L180.3,157.4z"/>
			<path class="st5" d="M397.2,153.6c3.1-1.8,6.9,0.5,6.8,4l-0.3,17.7l-0.3,17.7c-0.1,3.6-3.9,5.8-7,4l-15.1-8.9l-15.1-8.9
				c-3-1.8-2.9-6.2,0.1-8l15.4-8.8L397.2,153.6z"/>
			<g>
				<path class="st4" d="M101.9,525.1c-3.4,0-7.2-0.3-10.2-2.3c-4.2-2.7-6.5-8-8.4-12.3l-0.3-0.8c-10.6-23.7-15.3-63-14-116.8
					c0.4-15.2,1.3-31.3,8.1-47c1.7-4,4.2-9.1,8.3-13.3c4.6-4.7,11.1-8,19.8-10.2c8.4-2.1,17.9-3.8,29.9-5.4c3.4-0.5,5.9-1.7,7.5-3.9
					c3.4-4.6,2.8-12.3,1.6-20.1c-3.1-20.4-2.3-41,2.5-59.6c4.6-17.9,11.4-31.5,20.9-41.7c11.1-11.9,27.5-22.2,44-27.5
					c14.3-4.6,29.3-7,43.4-8.9c12.8-1.7,25.6-2.5,40.1-2.5c6.7,0,13.8,0.2,22.4,0.5c34.9,1.4,63.3,11.1,84.4,28.7
					c30.2,25.2,44.8,63.5,40,105c-1.6,13.8-3,19.6-5,27.6c-1.2,5-2.6,10.6-4.4,19.5c-0.4,1.8-0.7,3.5-1.1,5.2
					c-3.1,15.1-4.9,24.3-3.5,40.4c3.6,39.6-9,104.3-13.8,128.7c-0.4,1.8-0.7,3.5-0.9,4.9c-0.4,2-0.9,4.6-2.6,6.7
					c-3.2,4-13.5,4.8-21.5,4.8h-13.8c-3.6,0-6.5-2.7-6.9-6.2l-0.7-20.7H253.7l0.5,19.6c0,0.1,0,0.2,0,0.3c-0.4,4.1-3.8,7.1-7.9,7.1
					h-36.1c-4,0-7.4-2.7-8.3-6.6c-1.5-6.4-4-16.4-5-20.4h-66.4l-1.1,20.9c0,3.3-2.8,6.1-6.2,6.1h-16.7c-0.7,0-1.4,0-2.1,0
					C103.5,525,102.7,525.1,101.9,525.1z"/>
				<path d="M294.9,155.2c7.3,0,14.7,0.2,22.4,0.5c29.6,1.2,59.9,8.9,83,28.2c30.8,25.7,43.7,63.8,39.2,103
					c-2.5,22.2-4.7,23.5-9.4,46.9c-3.6,18.2-6.2,28-4.6,46.3c3.8,42.2-10.9,113.2-14.7,132.9c-0.4,2-0.8,4.1-2.1,5.7
					c-3,3.6-15.3,3.9-19.8,3.9c-4.6,0-9.2,0-13.8,0c-2.4,0-4.4-1.8-4.6-4.2l-0.8-22.8H251.4l0.5,21.9c-0.3,2.9-2.7,5.1-5.6,5.1
					l-36.1,0c-2.9,0-5.4-2-6.1-4.8c-2-8.2-5.5-22.1-5.5-22.1h-70.4l-1.2,23.1c0,2.2-1.8,3.9-3.9,3.9c-5.6,0-11.1,0-16.7,0
					c-1.4,0-3,0.1-4.6,0.1c-3.2,0-6.5-0.3-9-1.9c-3.8-2.5-6.1-8.1-7.9-12.1c-8.7-19.4-15.3-54.6-13.8-115.8
					c0.4-16,1.5-31.2,7.9-46.1c2-4.6,4.4-9,7.8-12.6c5-5.1,11.8-7.8,18.7-9.5c9.7-2.4,19.7-4,29.6-5.3c14.2-1.9,12.7-16.4,11.1-26.6
					c-3-19.4-2.5-39.6,2.4-58.6c3.8-14.8,9.8-29.4,20.4-40.7c11.3-12.2,27.8-22,43-26.9c13.9-4.5,28.6-6.9,43-8.8
					C268.9,155.9,281.7,155.2,294.9,155.2 M294.9,150.7c-14.6,0-27.5,0.8-40.4,2.5c-14.2,1.9-29.3,4.3-43.8,9
					c-16.8,5.5-33.6,16-44.9,28.2c-9.8,10.5-16.8,24.4-21.4,42.7c-4.8,18.8-5.7,39.8-2.5,60.5c0.7,4.5,2.1,13.9-1.2,18.4
					c-1.2,1.7-3.2,2.6-6,3c-12.1,1.6-21.7,3.3-30.1,5.4c-9.1,2.3-16,5.8-20.9,10.8c-4.3,4.4-7,9.8-8.8,14
					c-6.9,16.1-7.9,32.4-8.3,47.8c-1.3,54.2,3.5,93.8,14.2,117.8l0.3,0.8c1.9,4.3,4.5,10.2,9.2,13.3c3.5,2.3,7.8,2.6,11.5,2.6
					c0.9,0,1.7,0,2.5,0c0.7,0,1.4,0,2,0h16.7c4.6,0,8.4-3.7,8.5-8.4l0.9-18.6H195c1.2,4.7,3.3,13,4.6,18.6c1.2,4.9,5.5,8.4,10.5,8.4
					l36.1,0c5.3,0,9.6-4,10.2-9.2c0-0.2,0-0.4,0-0.6l-0.4-17.2h109.3l0.6,18.4c0,0.1,0,0.2,0,0.3c0.5,4.7,4.4,8.3,9.2,8.3H389
					c18.7,0,22.2-4.2,23.3-5.6c2.1-2.5,2.6-5.5,3.1-7.7c0.3-1.4,0.6-3,0.9-4.8c4.8-24.5,17.4-89.4,13.8-129.4
					c-1.4-15.8,0.4-24.8,3.4-39.7c0.3-1.7,0.7-3.4,1.1-5.2c1.8-8.9,3.2-14.4,4.4-19.4c2-8.1,3.5-13.9,5.1-27.9
					c4.8-42.4-10-81.4-40.8-107.1c-21.6-18-50.4-27.8-85.8-29.3C308.8,150.8,301.6,150.7,294.9,150.7L294.9,150.7z"/>
			</g>
			<path class="st6" d="M255.1,157.7c-14.4,1.9-29.2,4.3-43,8.8c-15.2,4.9-31.7,14.8-43,26.9c-10.5,11.3-16.6,25.9-20.4,40.7
				c-4.9,19-5.4,39.2-2.4,58.6c0.5,3.3,1,7.1,1,10.8c7.7,1,15.6,1.5,23.7,1.5c82.6,0,149.5-53.8,149.5-120.2
				c0-10.1-1.6-19.9-4.5-29.3C295,154.9,276.1,154.9,255.1,157.7z"/>
			<ellipse cx="294.1" cy="265" rx="8.2" ry="3.8"/>
			<path d="M242.4,248.5c-1.2,3.6-7.1,8-14.3,5.6c-7.2-2.4-12.9-10.8-11.7-14.4c1.2-3.6,8-4.5,15.2-2.1
				C238.8,240.1,243.6,245,242.4,248.5z"/>
			<path d="M354.3,249c1.3,3.5,9.1,6.8,16.2,4.1c7.1-2.7,10.8-10.3,9.4-13.8s-8.2-4.2-15.3-1.6C357.6,240.4,352.9,245.5,354.3,249z"
				/>
			<g>
				<path d="M278.2,275.9c0.5,3.6,2.5,8.7,6.8,9c2.1,0.1,3.9-1.2,5.5-2.3c2.6-1.8,2.7-3,5-0.7c2.7,2.7,4.9,4.6,8.7,2.6
					c2.8-1.4,6-4.9,6.1-8.2c0-2.9-4.5-2.9-4.6,0c0,1.1-1.5,2.6-2.4,3.2c-1.8,1.2-2.2,1.3-3.8,0c-1.6-1.2-2.4-3.2-4.4-3.8
					c-1.6-0.5-2.8,0-4.2,0.9c-1,0.6-1.9,1.8-2.9,2.2c-3.3,1.3-4.9-1.1-5.3-4C282.2,271.7,277.8,273,278.2,275.9L278.2,275.9z"/>
			</g>
			<path class="st6" d="M369.8,495.7l0.8,22.8c0.2,2.4,2.2,4.2,4.6,4.2c4.6,0,9.2,0,13.8,0c4.4,0,16.8-0.3,19.8-3.9
				c1.3-1.6,1.7-3.7,2.1-5.7c3.4-17.6,15.5-76,15.3-118.4c-11.7,1.7-23.5,4-34.7,7.6c-15.2,4.9-31.7,14.8-43,26.9
				c-10.5,11.3-16.6,25.9-20.4,40.7c-2.2,8.4-3.5,17.1-4,25.8H369.8z"/>
			<ellipse class="st7" cx="392.1" cy="265" rx="18.8" ry="8.8"/>
			<ellipse class="st7" cx="210.7" cy="263.8" rx="18.8" ry="8.8"/>
			<g>
				<path d="M181.4,262.3c-18.7-5.4-38.7-6.9-58-4.4c-2.9,0.4-2.9,5,0,4.6c19-2.4,38.4-1,56.8,4.3
					C183,267.6,184.2,263.1,181.4,262.3L181.4,262.3z"/>
			</g>
			<g>
				<path d="M181.1,273.2c-22.6-5-45.5-2.9-66.8,6.2c-2.7,1.2-0.4,5.1,2.3,4c20.1-8.5,42-10.5,63.3-5.7
					C182.7,278.3,184,273.9,181.1,273.2L181.1,273.2z"/>
			</g>
			<g>
				<path d="M176.5,284c-10.9-1.8-22.8,0.8-33.4,3.5c-10.1,2.5-19.4,6.4-26.9,13.8c-2.1,2.1,1.1,5.3,3.2,3.2
					c6.9-6.8,15.6-10.3,24.9-12.6c9.8-2.4,20.9-5.1,31-3.5C178.2,288.9,179.4,284.5,176.5,284L176.5,284z"/>
			</g>
			<g>
				<path d="M429.3,260.9c21.5-2.8,43.1-3.3,64.6-1.6c2.9,0.2,2.9-4.4,0-4.6c-21.6-1.7-43.2-1.1-64.6,1.6
					C426.4,256.7,426.4,261.2,429.3,260.9L429.3,260.9z"/>
			</g>
			<g>
				<path d="M427.6,274.3c20.1-2.4,40.6-1.4,56.9,12c2.3,1.9,5.5-1.4,3.2-3.2c-17.3-14.3-38.6-15.9-60.1-13.4
					C424.7,270,424.7,274.6,427.6,274.3L427.6,274.3z"/>
			</g>
			<g>
				<path d="M430,288.3c20.3,1.9,37.6,13,54.3,23.9c2.5,1.6,4.8-2.3,2.3-4c-17.4-11.4-35.4-22.5-56.6-24.5
					C427.1,283.5,427.1,288.1,430,288.3L430,288.3z"/>
			</g>
			<path class="st6" d="M71.5,382.3c-0.2,3.6-0.3,7.1-0.4,10.8c-1.4,56.3,4.2,90.7,11.8,110.9c11.2-13,17.9-27.4,15.2-44.8
				c-3.6-23.6-11.1-49.3-22.6-70.2C74.8,387.4,71.5,383.8,71.5,382.3z"/>
		</g>
		<g>
			<g>
				<path d="M663.1,394.1c-0.8,0-1.4-0.2-2-0.4c-11.9-4.3-23.6-12.4-34.9-24c-4.7-4.8-9.4-10.4-14.9-17.5
					c-17.2-22.3-32.8-46.9-30.2-75.1c4-42,51.3-68.7,74.7-68.7c3.8,0,6.9,0.7,9.3,2c1.3,0.7,2.3,1.5,3.2,2.4c2.4,2.6,3.4,5.6,3,8.8
					c-0.8,6.7-7.5,14.1-20.4,22.6c-2.2,1.4-4.5,2.8-6.7,4.2c-9.1,5.6-18.6,11.4-22.9,21c-5.2,11.5-1.6,24,1.1,30.4
					c5.1,12.5,20.6,35,29.7,44.7c4.4,4.7,7.6,6.3,11,8.1c3.7,1.9,7.5,3.9,12.5,9.6c9.4,10.7-6.1,27.2-9.3,30.4
					c-0.4,0.4-1.1,1.1-2.1,1.3C663.8,394.1,663.5,394.1,663.1,394.1z"/>
				<path class="st4" d="M655.9,210.7c3.3,0,6.1,0.6,8.2,1.7c1,0.5,1.9,1.2,2.6,2c9.2,10-9.8,23.3-17,28
					c-11.1,7.3-24.7,13.4-30.5,26.2c-4.6,10.2-3.1,22.1,1,32.2c5.2,12.7,20.9,35.6,30.2,45.4c9.5,10.2,14.3,7.1,23.5,17.6
					c7.1,8.1-3.5,21.5-9.2,27.2c-0.3,0.3-0.7,0.6-1.1,0.8c-0.1,0-0.3,0.1-0.4,0.1c-0.4,0-0.8-0.1-1.2-0.3
					c-13.1-4.7-24.5-13.6-34-23.5c-5.3-5.4-10.1-11.3-14.7-17.3c-16.4-21.2-32.3-45.4-29.7-73.5
					C587.3,237.2,633.3,210.7,655.9,210.7 M655.9,206.1c-24.1,0-72.9,27.6-77,70.8c-2.7,29,13.1,54,30.6,76.7
					c5.6,7.2,10.3,12.8,15,17.7c11.5,11.9,23.6,20.2,35.8,24.6c0.5,0.2,1.5,0.5,2.7,0.5c0.6,0,1.1-0.1,1.6-0.2
					c1.6-0.4,2.6-1.5,3.1-1.9c10-10,17.7-24,9.4-33.5c-5.3-6-9.5-8.2-13.2-10.1c-3.4-1.7-6.3-3.2-10.4-7.6c-8.8-9.4-24.3-32-29.3-44
					c-2.5-6.1-5.9-17.9-1.1-28.6c4.1-9,12.8-14.4,22.1-20c2.2-1.4,4.6-2.8,6.8-4.3c13.5-8.9,20.5-16.8,21.4-24.3
					c0.5-3.9-0.7-7.6-3.5-10.7c-1-1.1-2.2-2-3.7-2.9C663.6,206.9,660.1,206.1,655.9,206.1L655.9,206.1z"/>
			</g>
			<g>
				<path d="M808.1,515.9c-4.9-0.2-8.4-4.7-9.2-9.1l-3.8-19.5c-0.6-3,0.2-6,2.1-8.3c1.9-2.3,4.7-3.7,7.7-3.7c0.5,0,1,0,1.5,0.1
					l23.3,3.4c4.2,0.6,10.5,3.6,11.2,8.3c0,0.1,0,0.2,0,0.4l-0.2,16.7c0.4,2.8-0.5,5.7-2.4,7.9c-1.9,2.2-4.7,3.5-7.6,3.5l-0.3,0
					C830.4,515.6,808.2,515.9,808.1,515.9C808.1,515.9,808.1,515.9,808.1,515.9z"/>
				<g>
					<path class="st4" d="M804.9,477.6c0.4,0,0.8,0,1.2,0.1l23.3,3.4c3.4,0.5,8.7,3,9.2,6.4l-0.2,16.9c0.7,4.7-3,8.9-7.7,8.9
						c-0.1,0-0.2,0-0.2,0l-22.4,0.3c-3.6-0.1-6.4-3.7-7-7.3l-3.8-19.5C796.4,482,800.2,477.6,804.9,477.6 M804.9,473L804.9,473
						c-3.7,0-7.2,1.6-9.5,4.5c-2.4,2.9-3.3,6.6-2.6,10.2l3.8,19.5c1,5.3,5.3,10.8,11.4,11c0,0,0.1,0,0.1,0c0,0,0,0,0.1,0l22.3-0.3
						c0.1,0,0.2,0,0.3,0c3.6,0,7-1.6,9.3-4.3c2.3-2.6,3.3-6.1,2.9-9.5l0.2-16.6c0-0.2,0-0.5,0-0.7c-0.9-6.2-8.5-9.6-13.1-10.3
						l-23.3-3.4C806.2,473.1,805.5,473,804.9,473L804.9,473z"/>
				</g>
			</g>
			<g>
				<path d="M988.8,211.9c-0.3,0-0.6-0.1-0.9-0.2c-0.2-0.1-17.7-7.3-35.1-15.1c-36.4-16.3-36.5-18.8-36.7-20.8
					c-1.8-27.8,29.9-40.2,62.6-50.4c0.2-0.1,0.5-0.1,0.7-0.1c0.9,0,1.8,0.6,2.1,1.5c0.7,1.7,15.9,42.3,9.5,83.3
					c-0.1,0.7-0.5,1.3-1.1,1.6C989.5,211.8,989.1,211.9,988.8,211.9z"/>
				<path class="st4" d="M979.4,127.5c0,0,15.8,41.3,9.4,82.1c0,0-70-29-70.4-34C916.7,149.4,946.7,137.7,979.4,127.5 M979.4,122.9
					c-0.5,0-0.9,0.1-1.4,0.2c-33.5,10.5-66.1,23.3-64.2,52.8c0.2,3,2.1,5.3,13.6,11.2c5.9,3.1,14.1,7,24.4,11.6
					c17.4,7.8,35,15.1,35.2,15.2c0.6,0.2,1.2,0.3,1.8,0.3c0.8,0,1.5-0.2,2.2-0.6c1.2-0.7,2.1-1.9,2.3-3.3c6.5-41.6-9-82.7-9.6-84.4
					C983,124,981.2,122.9,979.4,122.9L979.4,122.9z"/>
			</g>
			<g>
				<path d="M728.4,224.3c-0.4,0-0.8-0.1-1.2-0.3c-0.7-0.4-1.1-1.1-1.1-1.9c-2.1-41.1,10.5-92.4,10.6-92.9c0.2-0.7,0.6-1.2,1.2-1.5
					c0.3-0.2,0.7-0.2,1-0.2c0.3,0,0.6,0.1,0.9,0.2l4,1.7c30.9,13.3,62.9,27,58.3,53.5c-0.3,1.8-0.7,4.2-37.3,23.2
					c-17.6,9.1-35.3,17.8-35.5,17.9C729.1,224.3,728.7,224.3,728.4,224.3z"/>
				<path class="st4" d="M739,129.8c31.4,13.6,65.4,26.9,61,52.8c-0.9,5-71.6,39.4-71.6,39.4C726.2,180.8,739,129.8,739,129.8
					 M739,125.3c-0.7,0-1.4,0.2-2,0.5c-1.2,0.6-2.1,1.7-2.4,3c-0.5,2.1-12.9,52.1-10.7,93.5c0.1,1.5,0.9,2.9,2.2,3.7
					c0.7,0.4,1.5,0.6,2.3,0.6c0.7,0,1.4-0.2,2-0.5c0.2-0.1,17.9-8.7,35.6-17.9c37.6-19.5,38-22,38.5-24.9c2.2-13-3.5-24.2-17.4-34.4
					c-11.4-8.4-27.1-15.1-42.3-21.6l-4-1.7C740.2,125.4,739.6,125.3,739,125.3L739,125.3z"/>
			</g>
			<path class="st5" d="M747.1,157.4c0.4-3.5,4.4-5.3,7.3-3.1l14.2,10.7l14.2,10.7c2.8,2.1,2.4,6.6-0.9,8l-16.1,7l-16.1,7
				c-3.2,1.4-6.8-1.3-6.4-4.8l1.9-17.6L747.1,157.4z"/>
			<path class="st5" d="M964,153.6c3.1-1.8,6.9,0.5,6.8,4l-0.3,17.7l-0.3,17.7c-0.1,3.6-3.9,5.8-7,4l-15.1-8.9l-15.1-8.9
				c-3-1.8-2.9-6.2,0.1-8l15.4-8.8L964,153.6z"/>
			<g>
				<path d="M668.7,525.1c-3.4,0-7.2-0.3-10.3-2.3c-4.2-2.7-6.5-8-8.4-12.3l-0.3-0.8c-10.6-23.7-15.3-63-14-116.8
					c0.4-15.2,1.3-31.3,8.1-47c1.7-4,4.2-9.1,8.3-13.3c4.6-4.7,11.1-8,19.8-10.2c8.4-2.1,17.9-3.8,29.9-5.4c3.4-0.5,5.9-1.7,7.5-3.9
					c3.4-4.6,2.8-12.3,1.6-20.1c-3.1-20.4-2.3-41,2.5-59.6c4.6-17.9,11.4-31.5,20.9-41.7c11.1-11.9,27.5-22.2,44-27.5
					c14.3-4.6,29.3-7,43.4-8.9c12.8-1.7,25.6-2.5,40.1-2.5c6.7,0,13.8,0.2,22.4,0.5c34.9,1.4,63.3,11.1,84.4,28.7
					c30.2,25.2,44.8,63.5,40,105c-1.6,13.8-3,19.6-5,27.6c-1.2,5-2.6,10.6-4.4,19.5c-0.4,1.8-0.7,3.5-1.1,5.2
					c-3.1,15.1-4.9,24.3-3.5,40.4c3.6,39.6-9,104.3-13.8,128.7c-0.4,1.9-0.7,3.5-0.9,4.9c-0.4,2.1-0.9,4.6-2.6,6.7
					c-3.2,4-13.5,4.8-21.5,4.8H942c-3.6,0-6.5-2.7-6.9-6.2l-0.7-20.7H820.5l0.5,19.6c0,0.1,0,0.2,0,0.3c-0.4,4.1-3.8,7.1-7.9,7.1
					H777c-4,0-7.4-2.7-8.3-6.6c-1.5-6.4-4-16.4-5-20.4h-66.4l-1.1,20.9c0,3.3-2.8,6.1-6.2,6.1h-16.7c-0.7,0-1.4,0-2.1,0
					C670.4,525,669.5,525.1,668.7,525.1z"/>
				<path class="st4" d="M861.7,155.2c7.3,0,14.7,0.2,22.4,0.5c29.6,1.2,59.9,8.9,83,28.2c30.8,25.7,43.7,63.8,39.2,103
					c-2.5,22.2-4.7,23.5-9.4,46.9c-3.6,18.2-6.2,28-4.6,46.3c3.8,42.2-10.9,113.2-14.7,132.9c-0.4,2-0.8,4.1-2.1,5.7
					c-3,3.6-15.3,3.9-19.8,3.9c-4.6,0-9.2,0-13.8,0c-2.4,0-4.4-1.8-4.6-4.2l-0.8-22.8H818.2l0.5,21.9c-0.3,2.9-2.7,5.1-5.6,5.1
					l-36.1,0c-2.9,0-5.4-2-6.1-4.8c-2-8.2-5.5-22.1-5.5-22.1h-70.4l-1.2,23.1c0,2.2-1.8,3.9-3.9,3.9c-5.6,0-11.1,0-16.7,0
					c-1.4,0-3,0.1-4.6,0.1c-3.2,0-6.5-0.3-9-1.9c-3.8-2.5-6.1-8.1-7.9-12.1c-8.7-19.4-15.3-54.6-13.8-115.8
					c0.4-16,1.5-31.2,7.9-46.1c2-4.6,4.4-9,7.8-12.6c5-5.1,11.8-7.8,18.7-9.5c9.7-2.4,19.7-4,29.6-5.3c14.2-1.9,12.7-16.4,11.1-26.6
					c-3-19.4-2.5-39.6,2.4-58.6c3.8-14.8,9.8-29.4,20.4-40.7c11.3-12.2,27.8-22,43-26.9c13.9-4.5,28.6-6.9,43-8.8
					C835.7,155.9,848.6,155.2,861.7,155.2 M861.7,150.7c-14.6,0-27.5,0.8-40.4,2.5c-14.2,1.9-29.3,4.3-43.8,9
					c-16.8,5.5-33.6,16-44.9,28.2c-9.8,10.5-16.8,24.4-21.4,42.7c-4.8,18.8-5.7,39.8-2.5,60.5c0.7,4.5,2.1,13.9-1.2,18.4
					c-1.2,1.7-3.2,2.6-6,3c-12.1,1.6-21.7,3.3-30.1,5.4c-9.1,2.3-16,5.8-20.9,10.8c-4.3,4.4-7,9.8-8.8,14
					c-6.9,16.1-7.9,32.4-8.3,47.8c-1.3,54.2,3.5,93.8,14.2,117.8l0.3,0.8c1.9,4.3,4.5,10.2,9.2,13.3c3.5,2.3,7.8,2.6,11.5,2.6
					c0.9,0,1.7,0,2.5,0c0.7,0,1.4,0,2,0H690c4.6,0,8.4-3.7,8.5-8.4l0.9-18.6h62.4c1.2,4.7,3.3,13,4.6,18.6c1.2,4.9,5.5,8.4,10.5,8.4
					l36.1,0c5.3,0,9.6-4,10.2-9.2c0-0.2,0-0.4,0-0.6l-0.4-17.2h109.3l0.6,18.4c0,0.1,0,0.2,0,0.3c0.5,4.7,4.4,8.3,9.2,8.3h13.8
					c18.7,0,22.2-4.2,23.3-5.6c2.1-2.5,2.6-5.5,3.1-7.7c0.3-1.4,0.6-3,0.9-4.8c4.8-24.5,17.4-89.4,13.8-129.4
					c-1.4-15.8,0.4-24.8,3.4-39.7c0.3-1.7,0.7-3.4,1.1-5.2c1.8-8.9,3.2-14.4,4.4-19.4c2-8.1,3.5-13.9,5.1-27.9
					c4.8-42.4-10-81.4-40.8-107.1c-21.6-18-50.4-27.8-85.8-29.3C875.6,150.8,868.4,150.7,861.7,150.7L861.7,150.7z"/>
			</g>
			<ellipse class="st8" cx="860.9" cy="265" rx="8.2" ry="3.8"/>
			<path class="st9" d="M809.3,248.5c-1.2,3.6-7.1,8-14.3,5.6c-7.2-2.4-12.9-10.8-11.7-14.4c1.2-3.6,8-4.5,15.2-2.1
				C805.6,240.1,810.5,245,809.3,248.5z"/>
			<path class="st9" d="M921.1,249c1.3,3.5,9.1,6.8,16.2,4.1s10.8-10.3,9.4-13.8c-1.3-3.5-8.2-4.2-15.3-1.6S919.8,245.5,921.1,249z"
				/>
			<g>
				<path class="st4" d="M845,275.9c0.5,3.6,2.5,8.7,6.8,9c2.1,0.1,3.9-1.2,5.5-2.3c2.6-1.8,2.7-3,5-0.7c2.7,2.7,4.9,4.6,8.7,2.6
					c2.8-1.4,6-4.9,6.1-8.2c0-2.9-4.5-2.9-4.6,0c0,1.1-1.5,2.6-2.4,3.2c-1.8,1.2-2.2,1.3-3.8,0c-1.6-1.2-2.4-3.2-4.4-3.8
					c-1.6-0.5-2.8,0-4.2,0.9c-1,0.6-1.9,1.8-2.9,2.2c-3.3,1.3-4.9-1.1-5.3-4C849.1,271.7,844.6,273,845,275.9L845,275.9z"/>
			</g>
			<ellipse class="st7" cx="959" cy="265" rx="18.8" ry="8.8"/>
			<ellipse class="st7" cx="777.5" cy="263.8" rx="18.8" ry="8.8"/>
			<g>
				<path class="st4" d="M748.2,262.3c-18.7-5.4-38.7-6.9-58-4.4c-2.9,0.4-2.9,5,0,4.6c19-2.4,38.4-1,56.8,4.3
					C749.9,267.6,751.1,263.1,748.2,262.3L748.2,262.3z"/>
			</g>
			<g>
				<path class="st4" d="M747.9,273.2c-22.6-5-45.5-2.9-66.8,6.2c-2.7,1.2-0.4,5.1,2.3,4c20.1-8.5,42-10.5,63.3-5.7
					C749.6,278.3,750.8,273.9,747.9,273.2L747.9,273.2z"/>
			</g>
			<g>
				<path class="st4" d="M743.4,284c-10.9-1.8-22.8,0.8-33.4,3.5c-10.1,2.5-19.4,6.4-26.9,13.8c-2.1,2.1,1.1,5.3,3.2,3.2
					c6.9-6.8,15.6-10.3,24.9-12.6c9.8-2.4,20.9-5.1,31-3.5C745,288.9,746.3,284.5,743.4,284L743.4,284z"/>
			</g>
			<g>
				<path class="st4" d="M996.2,260.9c21.5-2.8,43.1-3.3,64.6-1.6c2.9,0.2,2.9-4.4,0-4.6c-21.6-1.7-43.2-1.1-64.6,1.6
					C993.3,256.7,993.2,261.2,996.2,260.9L996.2,260.9z"/>
			</g>
			<g>
				<path class="st4" d="M994.5,274.3c20.1-2.4,40.6-1.4,56.9,12c2.3,1.9,5.5-1.4,3.2-3.2c-17.3-14.3-38.6-15.9-60.1-13.4
					C991.6,270,991.5,274.6,994.5,274.3L994.5,274.3z"/>
			</g>
			<g>
				<path class="st4" d="M996.9,288.3c20.3,1.9,37.6,13,54.3,23.9c2.5,1.6,4.8-2.3,2.3-4c-17.4-11.4-35.4-22.5-56.6-24.5
					C993.9,283.5,993.9,288.1,996.9,288.3L996.9,288.3z"/>
			</g>
		</g>
		<g>
			<path class="st10" d="M107,816.8c-9.2-10.5-13.9-7.4-23.5-17.6c-9.2-9.8-25-32.7-30.2-45.4c-4.1-10.1-5.7-22-1-32.2
				c5.8-12.8,19.4-18.9,30.5-26.2c7.2-4.7,26.2-18,17-28c-0.7-0.8-1.6-1.4-2.6-2c-16.4-9.2-76.3,18.9-80.6,64.9
				C14,758.4,30,782.6,46.4,803.8c4.6,6,9.4,11.9,14.7,17.3c9.6,9.9,21,18.8,34,23.5c0.5,0.2,1.1,0.4,1.6,0.2
				c0.4-0.1,0.8-0.4,1.1-0.8C103.5,838.4,114.1,824.9,107,816.8z"/>
			<path class="st10" d="M271.8,940.6l-0.2,16.9c0.7,4.8-3.1,9.1-7.9,8.9l-22.4,0.3c-3.6-0.1-6.4-3.7-7-7.3l-3.8-19.5
				c-1-5.3,3.5-9.9,8.8-9.2l23.3,3.4C266,934.7,271.3,937.2,271.8,940.6z"/>
			<path class="st10" d="M351.5,628.6c-1.7-26.2,28.3-37.8,61-48.1c0,0,15.8,41.3,9.4,82.1C421.9,662.6,351.9,633.7,351.5,628.6z"/>
			<path class="st10" d="M233.1,635.7c4.4-25.8-29.6-39.2-61-52.8c0,0-12.7,50.9-10.6,92.2C161.5,675.1,232.3,640.6,233.1,635.7z"/>
			<path class="st5" d="M180.3,610.4c0.4-3.5,4.4-5.3,7.3-3.1l14.2,10.7l14.2,10.7c2.8,2.1,2.4,6.6-0.9,8l-16.1,7l-16.1,7
				c-3.2,1.4-6.8-1.3-6.4-4.8l1.9-17.6L180.3,610.4z"/>
			<path class="st5" d="M397.2,606.7c3.1-1.8,6.9,0.5,6.8,4l-0.3,17.7l-0.3,17.7c-0.1,3.6-3.9,5.8-7,4l-15.1-8.9l-15.1-8.9
				c-3-1.8-2.9-6.2,0.1-8l15.4-8.8L397.2,606.7z"/>
			<g>
				<path class="st4" d="M101.9,978.1c-3.4,0-7.2-0.3-10.3-2.3c-4.2-2.7-6.5-8-8.4-12.3l-0.3-0.8c-10.6-23.7-15.3-63-14-116.8
					c0.4-15.2,1.3-31.3,8.1-47c1.7-4,4.2-9.1,8.3-13.3c4.6-4.7,11.1-8,19.8-10.2c8.4-2.1,17.9-3.8,29.9-5.4c3.4-0.5,5.9-1.7,7.5-3.9
					c3.4-4.6,2.8-12.3,1.6-20.1c-3.1-20.4-2.3-41,2.5-59.6c4.6-17.9,11.4-31.5,20.9-41.7c11.1-11.9,27.5-22.2,44-27.5
					c14.3-4.7,29.3-7,43.4-8.9c12.8-1.7,25.6-2.5,40.1-2.5c6.7,0,13.8,0.2,22.4,0.5c34.9,1.4,63.3,11.1,84.4,28.7
					c30.2,25.2,44.8,63.5,40,105c-1.6,13.8-3,19.6-5,27.6c-1.2,5-2.6,10.6-4.4,19.5c-0.4,1.8-0.7,3.5-1.1,5.2
					c-3.1,15.1-4.9,24.3-3.5,40.4c3.6,39.6-9,104.3-13.8,128.7c-0.4,1.8-0.7,3.5-0.9,4.9c-0.4,1.9-0.9,4.6-2.6,6.7
					c-3.2,4-13.5,4.8-21.5,4.8h-13.8c-3.6,0-6.5-2.7-6.9-6.2l-0.7-20.7H253.7l0.5,19.6c0,0.1,0,0.2,0,0.3c-0.4,4.1-3.8,7.1-7.9,7.1
					h-36.1c-4,0-7.4-2.7-8.3-6.6c-1.5-6.4-4-16.4-5-20.4h-66.4l-1.1,20.9c0,3.3-2.8,6.1-6.2,6.1h-16.7c-0.7,0-1.4,0-2.1,0
					C103.5,978.1,102.7,978.1,101.9,978.1z"/>
				<path d="M294.9,608.3c7.3,0,14.7,0.2,22.4,0.5c29.6,1.2,59.9,8.9,83,28.2c30.8,25.7,43.7,63.8,39.2,103
					c-2.5,22.2-4.7,23.5-9.4,46.9c-3.6,18.2-6.2,28-4.6,46.3c3.8,42.2-10.9,113.2-14.7,132.9c-0.4,2-0.8,4.1-2.1,5.7
					c-3,3.6-15.3,3.9-19.8,3.9c-4.6,0-9.2,0-13.8,0c-2.4,0-4.4-1.8-4.6-4.2l-0.8-22.8H251.4l0.5,21.9c-0.3,2.9-2.7,5.1-5.6,5.1
					h-36.1c-2.9,0-5.4-2-6.1-4.8c-2-8.2-5.5-22.1-5.5-22.1h-70.4l-1.2,23.1c0,2.2-1.8,3.9-3.9,3.9c-5.6,0-11.1,0-16.7,0
					c-1.4,0-3,0.1-4.6,0.1c-3.2,0-6.5-0.3-9-1.9c-3.8-2.5-6.1-8.1-7.9-12.1c-8.7-19.4-15.3-54.6-13.8-115.8
					c0.4-16,1.5-31.2,7.9-46.1c2-4.6,4.4-9,7.8-12.6c5-5.1,11.8-7.8,18.7-9.5c9.7-2.4,19.7-4,29.6-5.3c14.2-1.9,12.7-16.4,11.1-26.6
					c-3-19.4-2.5-39.6,2.4-58.6c3.8-14.8,9.8-29.4,20.4-40.7c11.3-12.2,27.8-22,43-26.9c13.9-4.5,28.6-6.9,43-8.8
					C268.9,608.9,281.7,608.3,294.9,608.3 M294.9,603.7c-14.6,0-27.5,0.8-40.4,2.5c-14.2,1.9-29.3,4.3-43.8,9
					c-16.8,5.5-33.6,16-44.9,28.2c-9.8,10.5-16.8,24.4-21.4,42.7c-4.8,18.8-5.7,39.8-2.5,60.5c0.7,4.5,2.1,13.9-1.2,18.4
					c-1.2,1.7-3.2,2.6-6,3c-12.1,1.6-21.7,3.3-30.1,5.4c-9.1,2.3-16,5.8-20.9,10.8c-4.3,4.4-7,9.8-8.8,14
					c-6.9,16.1-7.9,32.4-8.3,47.8c-1.3,54.2,3.5,93.8,14.2,117.8l0.3,0.8c1.9,4.3,4.5,10.2,9.2,13.3c3.5,2.3,7.8,2.6,11.5,2.6
					c0.9,0,1.7,0,2.5,0c0.7,0,1.4,0,2,0h16.7c4.6,0,8.4-3.7,8.5-8.4l0.9-18.6H195c1.2,4.7,3.3,13,4.6,18.6c1.2,4.9,5.5,8.4,10.5,8.4
					h36.1c5.3,0,9.6-4,10.2-9.2c0-0.2,0-0.4,0-0.6l-0.4-17.2h109.3l0.6,18.4c0,0.1,0,0.2,0,0.3c0.5,4.7,4.4,8.3,9.2,8.3H389
					c18.7,0,22.2-4.2,23.3-5.6c2.1-2.5,2.6-5.5,3.1-7.7c0.3-1.4,0.6-3,0.9-4.8c4.8-24.5,17.4-89.4,13.8-129.4
					c-1.4-15.8,0.4-24.8,3.4-39.7c0.3-1.7,0.7-3.4,1.1-5.2c1.8-8.9,3.2-14.4,4.4-19.4c2-8.1,3.5-13.9,5.1-27.9
					c4.8-42.4-10-81.4-40.8-107.1c-21.6-18-50.4-27.8-85.8-29.3C308.8,603.9,301.6,603.7,294.9,603.7L294.9,603.7z"/>
			</g>
			<path class="st11" d="M416.4,697.6c0,63.1,7,80.6-121.8,84.1c-121.8,0-122.7-25.4-121.8-84.1c0.7-46.4,54.5-62.3,121.8-62.3
				S416.4,651.1,416.4,697.6z"/>
			<ellipse cx="294.1" cy="718" rx="8.2" ry="3.8"/>
			<path class="st12" d="M242.4,701.6c-1.2,3.6-7.1,8-14.3,5.6c-7.2-2.4-12.9-10.8-11.7-14.4c1.2-3.6,8-4.5,15.2-2.1
				S243.6,698,242.4,701.6z"/>
			<path class="st13" d="M354.3,702.1c1.3,3.5,9.1,6.8,16.2,4.1c7.1-2.7,10.8-10.3,9.4-13.8c-1.3-3.5-8.2-4.2-15.3-1.6
				C357.6,693.5,352.9,698.5,354.3,702.1z"/>
			<g>
				<path d="M278.2,728.9c0.5,3.6,2.5,8.7,6.8,9c2.1,0.1,3.9-1.2,5.5-2.3c2.6-1.8,2.7-3,5-0.7c2.7,2.7,4.9,4.6,8.7,2.6
					c2.8-1.4,6-4.9,6.1-8.2c0-2.9-4.5-2.9-4.6,0c0,1.1-1.5,2.6-2.4,3.2c-1.8,1.2-2.2,1.3-3.8,0c-1.6-1.2-2.4-3.2-4.4-3.8
					c-1.6-0.5-2.8,0-4.2,0.9c-1,0.6-1.9,1.8-2.9,2.2c-3.3,1.3-4.9-1.1-5.3-4C282.2,724.8,277.8,726,278.2,728.9L278.2,728.9z"/>
			</g>
			<ellipse class="st7" cx="392.1" cy="718.1" rx="18.8" ry="8.8"/>
			<ellipse class="st7" cx="210.7" cy="716.9" rx="18.8" ry="8.8"/>
			<g>
				<path d="M181.4,715.4c-18.7-5.4-38.7-6.9-58-4.4c-2.9,0.4-2.9,5,0,4.6c19-2.4,38.4-1,56.8,4.3
					C183,720.6,184.2,716.2,181.4,715.4L181.4,715.4z"/>
			</g>
			<g>
				<path d="M181.1,726.3c-22.6-5-45.5-2.9-66.8,6.2c-2.7,1.2-0.4,5.1,2.3,4c20.1-8.5,42-10.5,63.3-5.7
					C182.7,731.3,184,726.9,181.1,726.3L181.1,726.3z"/>
			</g>
			<g>
				<path d="M176.5,737c-10.9-1.8-22.8,0.8-33.4,3.5c-10.1,2.5-19.4,6.4-26.9,13.8c-2.1,2.1,1.1,5.3,3.2,3.2
					c6.9-6.8,15.6-10.3,24.9-12.6c9.8-2.4,20.9-5.1,31-3.5C178.2,741.9,179.4,737.5,176.5,737L176.5,737z"/>
			</g>
			<g>
				<path d="M429.3,713.9c21.5-2.8,43.1-3.3,64.6-1.6c2.9,0.2,2.9-4.4,0-4.6c-21.6-1.7-43.2-1.1-64.6,1.6
					C426.4,709.7,426.4,714.3,429.3,713.9L429.3,713.9z"/>
			</g>
			<g>
				<path d="M427.6,727.3c20.1-2.4,40.6-1.4,56.9,12c2.3,1.9,5.5-1.4,3.2-3.2c-17.3-14.3-38.6-15.9-60.1-13.4
					C424.7,723.1,424.7,727.6,427.6,727.3L427.6,727.3z"/>
			</g>
			<g>
				<path d="M430,741.4c20.3,1.9,37.6,13,54.3,23.9c2.5,1.6,4.8-2.3,2.3-4c-17.4-11.4-35.4-22.5-56.6-24.5
					C427.1,736.5,427.1,741.1,430,741.4L430,741.4z"/>
			</g>
			<path class="st11" d="M390.1,955.2c-7.1,0-13.9,0.8-20,2.2l0.5,14.2c0.2,2.4,2.2,4.2,4.6,4.2c4.6,0,9.2,0,13.8,0
				c4.4,0,16.8-0.3,19.8-3.9c1.3-1.6,1.7-3.7,2.1-5.7c0.4-2.1,0.9-4.9,1.6-8.1C405.7,956.2,398.2,955.2,390.1,955.2z"/>
			<path class="st11" d="M201.1,958.8c1,4.1,2.1,8.6,3,12.1c0.7,2.8,3.2,4.8,6.1,4.8l36.1,0c2.9,0,5.3-2.2,5.6-5.1l-0.3-11.8
				c-7.4-2.3-16.1-3.6-25.4-3.6C217.1,955.2,208.5,956.5,201.1,958.8z"/>
			<path class="st11" d="M106.2,952.6c-8.6,0-16.6,1.3-23.6,3.5c0.8,2.1,1.5,4,2.3,5.8c1.8,4,4.1,9.5,7.9,12.1
				c3.7,2.4,9.4,1.8,13.6,1.8c5.6,0,11.1,0,16.7,0c2.2,0,3.9-1.8,3.9-3.9l0.8-16.3C121.4,953.7,114,952.6,106.2,952.6z"/>
		</g>
		<g>
			<g>
				<path class="st4" d="M663.1,847.2c-0.8,0-1.4-0.2-2-0.4c-11.9-4.3-23.6-12.4-34.9-24c-4.6-4.8-9.4-10.4-14.9-17.5
					c-17.2-22.3-32.8-46.9-30.2-75.1c4-42,51.3-68.7,74.7-68.7c3.8,0,6.9,0.7,9.3,2c1.3,0.7,2.3,1.5,3.2,2.4c2.4,2.6,3.4,5.6,3,8.8
					c-0.8,6.7-7.5,14.1-20.4,22.6c-2.2,1.4-4.5,2.9-6.7,4.2c-9.1,5.6-18.6,11.4-22.9,21c-5.2,11.5-1.6,24,1.1,30.4
					c5.1,12.5,20.6,35,29.7,44.7c4.4,4.7,7.6,6.3,11,8.1c3.7,1.9,7.5,3.9,12.5,9.6c9.4,10.7-6.1,27.2-9.3,30.4
					c-0.4,0.4-1.1,1.1-2.1,1.3C663.8,847.1,663.5,847.2,663.1,847.2z"/>
				<path d="M655.9,663.7c3.3,0,6.1,0.6,8.2,1.7c1,0.5,1.9,1.2,2.6,2c9.2,10-9.8,23.3-17,28c-11.1,7.3-24.7,13.4-30.5,26.2
					c-4.6,10.2-3.1,22.1,1,32.2c5.2,12.7,20.9,35.6,30.2,45.4c9.5,10.2,14.3,7.1,23.5,17.6c7.1,8.1-3.5,21.5-9.2,27.2
					c-0.3,0.3-0.7,0.6-1.1,0.8c-0.1,0-0.3,0.1-0.4,0.1c-0.4,0-0.8-0.1-1.2-0.3c-13.1-4.7-24.5-13.6-34-23.5
					c-5.3-5.4-10.1-11.3-14.7-17.3c-16.4-21.2-32.3-45.4-29.7-73.5C587.3,690.2,633.3,663.7,655.9,663.7 M655.9,659.1
					c-24.1,0-72.9,27.6-77,70.8c-2.7,29,13.1,54,30.6,76.7c5.6,7.2,10.3,12.8,15,17.7c11.5,11.9,23.6,20.2,35.8,24.6
					c0.5,0.2,1.5,0.5,2.7,0.5c0.6,0,1.1-0.1,1.6-0.2c1.6-0.4,2.6-1.5,3.1-1.9c10-10,17.7-24,9.4-33.5c-5.3-6-9.5-8.2-13.2-10.1
					c-3.4-1.7-6.3-3.2-10.4-7.6c-8.8-9.4-24.3-32-29.3-44c-2.5-6.1-5.9-17.9-1.1-28.6c4.1-9,12.8-14.4,22.1-20
					c2.2-1.4,4.6-2.8,6.8-4.3c13.5-8.9,20.5-16.8,21.4-24.3c0.5-3.9-0.7-7.6-3.5-10.7c-1-1.1-2.2-2-3.7-2.9
					C663.6,659.9,660.1,659.1,655.9,659.1L655.9,659.1z"/>
			</g>
			<g>
				<path class="st4" d="M808.1,968.9c-4.9-0.2-8.4-4.7-9.2-9.1l-3.8-19.5c-0.6-3,0.2-6,2.1-8.3c1.9-2.3,4.7-3.7,7.7-3.7
					c0.5,0,1,0,1.5,0.1l23.3,3.4c4.2,0.6,10.5,3.6,11.2,8.3c0,0.1,0,0.2,0,0.4l-0.2,16.7c0.4,2.8-0.5,5.7-2.4,7.9
					c-1.9,2.2-4.7,3.5-7.6,3.5l-0.3,0C830.4,968.7,808.2,968.9,808.1,968.9C808.1,968.9,808.1,968.9,808.1,968.9z"/>
				<path d="M804.9,930.6c0.4,0,0.8,0,1.2,0.1l23.3,3.4c3.4,0.5,8.7,3,9.2,6.4l-0.2,16.9c0.7,4.7-3,8.9-7.7,8.9c-0.1,0-0.2,0-0.2,0
					l-22.4,0.3c-3.6-0.1-6.4-3.7-7-7.3l-3.8-19.5C796.4,935,800.2,930.6,804.9,930.6 M804.9,926.1L804.9,926.1
					c-3.7,0-7.2,1.6-9.5,4.5c-2.4,2.9-3.3,6.6-2.6,10.2l3.8,19.5c1,5.3,5.3,10.8,11.4,11c0,0,0.1,0,0.1,0c0,0,0,0,0.1,0l22.3-0.3
					c0.1,0,0.2,0,0.3,0c3.6,0,7-1.6,9.3-4.3c2.3-2.6,3.3-6.1,2.9-9.5l0.2-16.6c0-0.2,0-0.5,0-0.7c-0.9-6.2-8.5-9.6-13.1-10.3
					l-23.3-3.4C806.2,926.1,805.5,926.1,804.9,926.1L804.9,926.1z"/>
			</g>
			<g>
				<path class="st4" d="M988.8,664.9c-0.3,0-0.6-0.1-0.9-0.2c-0.2-0.1-17.7-7.3-35.1-15.1c-36.4-16.3-36.5-18.8-36.7-20.8
					c-1.8-27.8,29.9-40.2,62.6-50.4c0.2-0.1,0.5-0.1,0.7-0.1c0.9,0,1.8,0.6,2.1,1.5c0.7,1.7,15.9,42.3,9.5,83.3
					c-0.1,0.7-0.5,1.3-1.1,1.6C989.5,664.8,989.1,664.9,988.8,664.9z"/>
				<path d="M979.4,580.5c0,0,15.8,41.3,9.4,82.1c0,0-70-29-70.4-34C916.7,602.5,946.7,590.8,979.4,580.5 M979.4,576
					c-0.5,0-0.9,0.1-1.4,0.2c-33.5,10.5-66.1,23.3-64.2,52.8c0.2,3,2.1,5.3,13.6,11.2c5.9,3.1,14.1,7,24.4,11.6
					c17.4,7.8,35,15.1,35.2,15.2c0.6,0.2,1.2,0.3,1.8,0.3c0.8,0,1.5-0.2,2.2-0.6c1.2-0.7,2.1-1.9,2.3-3.3c6.5-41.6-9-82.7-9.6-84.4
					C983,577.1,981.2,576,979.4,576L979.4,576z"/>
			</g>
			<g>
				<path class="st4" d="M728.4,677.4c-0.4,0-0.8-0.1-1.2-0.3c-0.7-0.4-1.1-1.1-1.1-1.9c-2.1-41.1,10.5-92.4,10.6-92.9
					c0.2-0.7,0.6-1.2,1.2-1.5c0.3-0.2,0.7-0.2,1-0.2c0.3,0,0.6,0.1,0.9,0.2l4,1.7c30.9,13.3,62.9,27,58.3,53.5
					c-0.3,1.8-0.7,4.2-37.3,23.2c-17.6,9.1-35.3,17.8-35.5,17.9C729.1,677.3,728.7,677.4,728.4,677.4z"/>
				<path d="M739,582.9c31.4,13.6,65.4,26.9,61,52.8c-0.9,5-71.6,39.4-71.6,39.4C726.2,633.8,739,582.9,739,582.9 M739,578.3
					c-0.7,0-1.4,0.2-2,0.5c-1.2,0.6-2.1,1.7-2.4,3c-0.5,2.1-12.9,52.1-10.7,93.5c0.1,1.5,0.9,2.9,2.2,3.7c0.7,0.4,1.5,0.6,2.3,0.6
					c0.7,0,1.4-0.2,2-0.5c0.2-0.1,17.9-8.7,35.6-17.9c37.6-19.5,38-22,38.5-24.9c2.2-13-3.5-24.2-17.4-34.4
					c-11.4-8.4-27.1-15.1-42.3-21.6l-4-1.7C740.2,578.4,739.6,578.3,739,578.3L739,578.3z"/>
			</g>
			<path class="st14" d="M747.1,610.4c0.4-3.5,4.4-5.3,7.3-3.1l14.2,10.7l14.2,10.7c2.8,2.1,2.4,6.6-0.9,8l-16.1,7l-16.1,7
				c-3.2,1.4-6.8-1.3-6.4-4.8l1.9-17.6L747.1,610.4z"/>
			<path class="st14" d="M964,606.7c3.1-1.8,6.9,0.5,6.8,4l-0.3,17.7l-0.3,17.7c-0.1,3.6-3.9,5.8-7,4l-15.1-8.9l-15.1-8.9
				c-3-1.8-2.9-6.2,0.1-8l15.4-8.8L964,606.7z"/>
			<g>
				<path class="st4" d="M668.7,978.1c-3.4,0-7.2-0.3-10.3-2.3c-4.2-2.7-6.5-8-8.4-12.3l-0.3-0.8c-10.6-23.7-15.3-63-14-116.8
					c0.4-15.2,1.3-31.3,8.1-47c1.7-4,4.2-9.1,8.3-13.3c4.6-4.7,11.1-8,19.8-10.2c8.4-2.1,17.9-3.8,29.9-5.4c3.4-0.5,5.9-1.7,7.5-3.9
					c3.4-4.6,2.8-12.3,1.6-20.1c-3.1-20.4-2.3-41,2.5-59.6c4.6-17.9,11.4-31.5,20.9-41.7c11.1-11.9,27.5-22.2,44-27.5
					c14.3-4.7,29.3-7,43.4-8.9c12.8-1.7,25.6-2.5,40.1-2.5c6.7,0,13.8,0.2,22.4,0.5c34.9,1.4,63.3,11.1,84.4,28.7
					c30.2,25.2,44.8,63.5,40,105c-1.6,13.8-3,19.6-5,27.6c-1.2,5-2.6,10.6-4.4,19.5c-0.4,1.8-0.7,3.5-1.1,5.2
					c-3.1,15.1-4.9,24.3-3.5,40.4c3.6,39.6-9,104.3-13.8,128.7c-0.4,1.9-0.7,3.5-0.9,4.9c-0.4,2.1-0.9,4.6-2.6,6.7
					c-3.2,4-13.5,4.8-21.5,4.8H942c-3.6,0-6.5-2.7-6.9-6.2l-0.7-20.7H820.5l0.5,19.6c0,0.1,0,0.2,0,0.3c-0.4,4.1-3.8,7.1-7.9,7.1
					H777c-4,0-7.4-2.7-8.3-6.6c-1.5-6.4-4-16.4-5-20.4h-66.4l-1.1,20.9c0,3.3-2.8,6.1-6.2,6.1h-16.7c-0.7,0-1.4,0-2.1,0
					C670.4,978.1,669.5,978.1,668.7,978.1z"/>
				<g>
					<path d="M861.7,608.3c7.3,0,14.7,0.2,22.4,0.5c29.6,1.2,59.9,8.9,83,28.2c30.8,25.7,43.7,63.8,39.2,103
						c-2.5,22.2-4.7,23.5-9.4,46.9c-3.6,18.2-6.2,28-4.6,46.3c3.8,42.2-10.9,113.2-14.7,132.9c-0.4,2-0.8,4.1-2.1,5.7
						c-3,3.6-15.3,3.9-19.8,3.9c-4.6,0-9.2,0-13.8,0c-2.4,0-4.4-1.8-4.6-4.2l-0.8-22.8H818.2l0.5,21.9c-0.3,2.9-2.7,5.1-5.6,5.1H777
						c-2.9,0-5.4-2-6.1-4.8c-2-8.2-5.5-22.1-5.5-22.1h-70.4l-1.2,23.1c0,2.2-1.8,3.9-3.9,3.9c-5.6,0-11.1,0-16.7,0
						c-1.4,0-3,0.1-4.6,0.1c-3.2,0-6.5-0.3-9-1.9c-3.8-2.5-6.1-8.1-7.9-12.1c-8.7-19.4-15.3-54.6-13.8-115.8
						c0.4-16,1.5-31.2,7.9-46.1c2-4.6,4.4-9,7.8-12.6c5-5.1,11.8-7.8,18.7-9.5c9.7-2.4,19.7-4,29.6-5.3
						c14.2-1.9,12.7-16.4,11.1-26.6c-3-19.4-2.5-39.6,2.4-58.6c3.8-14.8,9.8-29.4,20.4-40.7c11.3-12.2,27.8-22,43-26.9
						c13.9-4.5,28.6-6.9,43-8.8C835.7,608.9,848.6,608.3,861.7,608.3 M861.7,603.7c-14.6,0-27.5,0.8-40.4,2.5
						c-14.2,1.9-29.3,4.3-43.8,9c-16.8,5.5-33.6,16-44.9,28.2c-9.8,10.5-16.8,24.4-21.4,42.7c-4.8,18.8-5.7,39.8-2.5,60.5
						c0.7,4.5,2.1,13.9-1.2,18.4c-1.2,1.7-3.2,2.6-6,3c-12.1,1.6-21.7,3.3-30.1,5.4c-9.1,2.3-16,5.8-20.9,10.8
						c-4.3,4.4-7,9.8-8.8,14c-6.9,16.1-7.9,32.4-8.3,47.8c-1.3,54.2,3.5,93.8,14.2,117.8l0.3,0.8c1.9,4.3,4.5,10.2,9.2,13.3
						c3.5,2.3,7.8,2.6,11.5,2.6c0.9,0,1.7,0,2.5,0c0.7,0,1.4,0,2,0H690c4.6,0,8.4-3.7,8.5-8.4l0.9-18.6h62.4
						c1.2,4.7,3.3,13,4.6,18.6c1.2,4.9,5.5,8.4,10.5,8.4h36.1c5.3,0,9.6-4,10.2-9.2c0-0.2,0-0.4,0-0.6l-0.4-17.2h109.3l0.6,18.4
						c0,0.1,0,0.2,0,0.3c0.5,4.7,4.4,8.3,9.2,8.3h13.8c18.7,0,22.2-4.2,23.3-5.6c2.1-2.5,2.6-5.5,3.1-7.7c0.3-1.4,0.6-3,0.9-4.8
						c4.8-24.5,17.4-89.4,13.8-129.4c-1.4-15.8,0.4-24.8,3.4-39.7c0.3-1.7,0.7-3.4,1.1-5.2c1.8-8.9,3.2-14.4,4.4-19.4
						c2-8.1,3.5-13.9,5.1-27.9c4.8-42.4-10-81.4-40.8-107.1c-21.6-18-50.4-27.8-85.8-29.3C875.6,603.9,868.4,603.7,861.7,603.7
						L861.7,603.7z"/>
				</g>
			</g>
			<ellipse cx="868.8" cy="719.8" rx="8.2" ry="3.8"/>
			<g>
				<path d="M852.9,728.9c0.5,3.6,2.5,8.7,6.8,9c2.1,0.1,3.9-1.2,5.5-2.3c2.6-1.8,2.7-3,5-0.7c2.7,2.7,4.9,4.6,8.7,2.6
					c2.8-1.4,6-4.9,6.1-8.2c0-2.9-4.5-2.9-4.6,0c0,1.1-1.5,2.6-2.4,3.2c-1.8,1.2-2.2,1.3-3.8,0c-1.6-1.2-2.4-3.2-4.4-3.8
					c-1.6-0.5-2.8,0-4.2,0.9c-1,0.6-1.9,1.8-2.9,2.2c-3.3,1.3-4.9-1.1-5.3-4C856.9,724.8,852.5,726,852.9,728.9L852.9,728.9z"/>
			</g>
			<g>
				<path d="M737.7,704.9c-18.7-5.4-38.7-6.9-58-4.4c-2.9,0.4-2.9,5,0,4.6c19-2.4,38.4-1,56.8,4.3
					C739.3,710.1,740.6,705.7,737.7,704.9L737.7,704.9z"/>
			</g>
			<g>
				<path d="M737.4,715.8c-22.6-5-45.5-2.9-66.8,6.2c-2.7,1.2-0.4,5.1,2.3,4c20.1-8.5,42-10.5,63.3-5.7
					C739.1,720.8,740.3,716.4,737.4,715.8L737.4,715.8z"/>
			</g>
			<g>
				<path d="M732.8,726.5c-10.9-1.8-22.8,0.8-33.4,3.5c-10.1,2.5-19.4,6.4-26.9,13.8c-2.1,2.1,1.1,5.3,3.2,3.2
					c6.9-6.8,15.6-10.3,24.9-12.6c9.8-2.4,20.9-5.1,31-3.5C734.5,731.4,735.7,727,732.8,726.5L732.8,726.5z"/>
			</g>
			<g>
				<path d="M996.2,715.7c21.5-2.8,43.1-3.3,64.6-1.6c2.9,0.2,2.9-4.4,0-4.6c-21.6-1.7-43.2-1.1-64.6,1.6
					C993.3,711.5,993.2,716,996.2,715.7L996.2,715.7z"/>
			</g>
			<g>
				<path d="M994.5,729c20.1-2.4,40.6-1.4,56.9,12c2.3,1.9,5.5-1.4,3.2-3.2c-17.3-14.3-38.6-15.9-60.1-13.4
					C991.6,724.8,991.5,729.4,994.5,729L994.5,729z"/>
			</g>
			<g>
				<path d="M996.9,743.1c20.3,1.9,37.6,13,54.3,23.9c2.5,1.6,4.8-2.3,2.3-4c-17.4-11.4-35.4-22.5-56.6-24.5
					C993.9,738.3,993.9,742.9,996.9,743.1L996.9,743.1z"/>
			</g>
			<path class="st15" d="M967.2,792.9c6.4,49-60.9,94.8-124.6,89.1c-63.6-5.7-108.4-60.6-105-109.8
				C738.3,759.9,844.3,790.2,967.2,792.9z"/>
			<circle class="st16" cx="858.4" cy="818.9" r="25.9"/>
			<g>
				<path d="M834.4,825.5c14.2-2.2,33.6-2.5,45.1,7.3c2.2,1.9,5.5-1.3,3.2-3.2c-13-11-33.6-11-49.6-8.5
					C830.3,821.6,831.6,826,834.4,825.5L834.4,825.5z"/>
			</g>
			<g>
				<path d="M856.1,823.8c-1,6.3-0.7,12.9-2.6,19.1c-0.9,2.8,3.6,4,4.4,1.2c1.9-6.2,1.6-12.7,2.6-19.1
					C861,822.1,856.6,820.9,856.1,823.8L856.1,823.8z"/>
			</g>
			<circle cx="931.1" cy="698.9" r="10.1"/>
			<circle cx="800.5" cy="696.2" r="10.1"/>
			<circle class="st17" cx="964.4" cy="724.3" r="21.5"/>
			<circle class="st17" cx="763.7" cy="713.8" r="21.5"/>
			<g>
				<path d="M922.8,675.9c0,1.5,0,2.9,0,4.4c0,2.9,4.6,3,4.6,0c0-1.5,0-2.9,0-4.4C927.4,673,922.8,673,922.8,675.9L922.8,675.9z"/>
			</g>
			<g>
				<path d="M933.4,676.2c-0.4,1.5-0.7,2.9-1.1,4.4c-0.7,2.9,3.7,4.1,4.4,1.2c0.4-1.5,0.7-2.9,1.1-4.4
					C938.5,674.5,934.1,673.3,933.4,676.2L933.4,676.2z"/>
			</g>
			<g>
				<path d="M941.9,678.3c-0.6,1.3-1.2,2.5-1.8,3.8c-0.5,1.1-0.3,2.5,0.8,3.1c1,0.6,2.6,0.3,3.1-0.8c0.6-1.3,1.2-2.5,1.8-3.8
					c0.5-1.1,0.3-2.5-0.8-3.1C944,676.9,942.4,677.2,941.9,678.3L941.9,678.3z"/>
			</g>
			<g>
				<path d="M805.3,675.2c0,1.5,0,2.9,0,4.4c0,2.9,4.6,3,4.6,0c0-1.5,0-2.9,0-4.4C809.8,672.2,805.3,672.2,805.3,675.2L805.3,675.2z
					"/>
			</g>
			<g>
				<path d="M794.8,676.7c0.4,1.5,0.7,2.9,1.1,4.4c0.7,2.9,5.1,1.6,4.4-1.2c-0.4-1.5-0.7-2.9-1.1-4.4
					C798.5,672.6,794.1,673.8,794.8,676.7L794.8,676.7z"/>
			</g>
			<g>
				<path d="M786.9,679.9c0.6,1.3,1.2,2.5,1.8,3.8c0.5,1.1,2.1,1.4,3.1,0.8c1.2-0.7,1.3-2,0.8-3.1c-0.6-1.3-1.2-2.5-1.8-3.8
					c-0.5-1.1-2.1-1.4-3.1-0.8C786.5,677.4,786.3,678.7,786.9,679.9L786.9,679.9z"/>
			</g>
			<path class="st18" d="M884.1,608.8c-20.1-0.8-38.1-0.9-57.8,1.4c1.5,23.6,16.7,43.8,38.9,48.8c27.4,6.2,55.1-13.1,62.3-43.1
				C913.5,611.6,898.7,609.4,884.1,608.8z"/>
			<path d="M882.8,607.3c-16.4-0.7-31.2-0.7-47.3,1.2c1.2,19.3,13.7,35.9,31.9,40c22.4,5.1,45.2-10.7,51-35.3
				C906.9,609.5,894.8,607.7,882.8,607.3z"/>
			<path class="st18" d="M1030.6,976.2L1030.6,976.2c-20.4,4.9-41.1-7.8-46-28.2l-12.9-53.9c-4.9-20.4,7.8-41.1,28.2-46h0
				c20.4-4.9,41.1,7.8,46,28.2l12.9,53.9C1063.7,950.6,1051,971.3,1030.6,976.2z"/>
			<g>
				<path class="st19" d="M985.2,886.9c14.4-4.8,29-8.3,44-10.7c2.9-0.5,1.7-4.9-1.2-4.4c-15,2.3-29.6,5.9-44,10.7
					C981.2,883.5,982.4,887.9,985.2,886.9L985.2,886.9z"/>
			</g>
			<g>
				<path class="st19" d="M988.7,900.1c14.4-4.8,29-8.3,44-10.7c2.9-0.5,1.7-4.9-1.2-4.4c-15,2.3-29.6,5.9-44,10.7
					C984.7,896.6,985.9,901,988.7,900.1L988.7,900.1z"/>
			</g>
			<g>
				<path class="st19" d="M992.2,913.2c14.4-4.8,29-8.3,44-10.7c2.9-0.5,1.7-4.9-1.2-4.4c-15,2.3-29.6,5.9-44,10.7
					C988.2,909.7,989.4,914.2,992.2,913.2L992.2,913.2z"/>
			</g>
			<g>
				<path class="st19" d="M995.7,926.4c14.4-4.8,29-8.3,44-10.7c2.9-0.5,1.7-4.9-1.2-4.4c-15,2.3-29.6,5.9-44,10.7
					C991.7,922.9,992.9,927.3,995.7,926.4L995.7,926.4z"/>
			</g>
			<g>
				<path class="st19" d="M999.2,939.5c14.4-4.8,29-8.3,44-10.7c2.9-0.5,1.7-4.9-1.2-4.4c-15,2.3-29.6,5.9-44,10.7
					C995.2,936,996.4,940.5,999.2,939.5L999.2,939.5z"/>
			</g>
			<g>
				<path class="st19" d="M1002.7,952.7c14.4-4.8,29-8.3,44-10.7c2.9-0.5,1.7-4.9-1.2-4.4c-15,2.3-29.6,5.9-44,10.7
					C998.7,949.2,999.9,953.6,1002.7,952.7L1002.7,952.7z"/>
			</g>
			<path class="st14" d="M714,752.3c0.5,5.7,0.1,11.7-3.1,15.7c92.5,30.6,239.4,33,283.3,33c0.8-4.3,1.8-8.8,2.8-14.1
				c0.4-2,0.8-3.8,1.1-5.5C903.4,792.1,746.2,759.4,714,752.3z"/>
		</g>
	</g>
</g>
<g id="圖層_3" class="st1">
	<g class="st2">
		<g>
			<path d="M356.7,617.6c-0.7,0-1.3-0.2-1.9-0.4c-13.4-4.8-26.7-14-39.4-27.2c-5.3-5.5-10.6-11.8-16.9-19.9
				c-19.5-25.3-37.2-53.1-34.2-84.9c1.9-20.6,14-40.6,33.8-56.2c16.1-12.7,36.3-21.2,50.3-21.2c4.1,0,7.5,0.7,10.1,2.2
				c1.4,0.8,2.5,1.6,3.3,2.6c2.5,2.7,3.5,5.8,3.1,9.2c-0.9,7.2-8.6,15.6-22.8,25c-2.5,1.6-5.1,3.2-7.6,4.8
				c-10.6,6.5-21.5,13.1-26.6,24.5c-6.1,13.5-1.9,28.1,1.2,35.5c5.9,14.3,23.7,40.2,34.1,51.3c5.1,5.5,8.9,7.4,12.8,9.4
				c4.1,2.1,8.4,4.3,13.9,10.7c7.8,8.9-0.9,23.4-10.6,33.1c-0.4,0.4-1,1-1.9,1.3C357.3,617.6,357,617.6,356.7,617.6z"/>
			<path class="st4" d="M348.5,409.4c3.8,0,7,0.6,9.3,2c1.1,0.6,2.1,1.4,3,2.3c10.5,11.5-11.2,26.6-19.4,32
				c-12.6,8.4-28.2,15.3-34.8,29.9c-5.3,11.7-3.5,25.2,1.2,36.7c5.9,14.5,23.9,40.6,34.4,51.8c10.9,11.6,16.3,8.1,26.8,20.1
				c8.1,9.2-4,24.6-10.5,31.1c-0.4,0.4-0.8,0.7-1.3,0.9c-0.2,0-0.3,0.1-0.5,0.1c-0.5,0-0.9-0.2-1.4-0.3
				c-14.9-5.4-27.9-15.5-38.8-26.8c-6-6.2-11.5-12.9-16.8-19.7c-18.7-24.2-36.9-51.8-33.9-83.8C270.2,439.7,322.7,409.4,348.5,409.4
				 M348.5,406.4c-14.5,0-34.6,8.4-51.2,21.5c-20.2,15.9-32.4,36.2-34.4,57.3c-3,32.3,14.8,60.4,34.5,86c6.3,8.1,11.7,14.5,17,20
				c12.9,13.4,26.4,22.6,40,27.5c0.5,0.2,1.4,0.5,2.4,0.5c0.4,0,0.9-0.1,1.3-0.2c1.3-0.4,2.1-1.2,2.6-1.6c2.2-2.2,7.8-8.2,11.3-15.3
				c4.9-10.2,2.4-16.4-0.6-19.8c-5.7-6.5-10.1-8.8-14.4-11c-3.8-2-7.5-3.9-12.4-9.1c-10.4-11.1-28-36.7-33.8-50.9
				c-3-7.3-7.1-21.4-1.2-34.4c5-10.9,15.7-17.5,26-23.8c2.5-1.6,5.2-3.2,7.7-4.8c14.8-9.8,22.5-18.3,23.4-26.1
				c0.5-3.8-0.7-7.3-3.5-10.4c-1-1.1-2.2-2-3.7-2.8C356.5,407.2,352.9,406.4,348.5,406.4L348.5,406.4z"/>
		</g>
		<g>
			<path d="M522.1,756.5c-5-0.2-8.6-4.9-9.5-9.5l-4.3-22.2c-0.6-3.1,0.2-6.2,2.2-8.6c2-2.4,4.9-3.8,8-3.8c0.5,0,1,0,1.5,0.1
				l26.6,3.9c4.3,0.6,11.1,3.8,11.8,8.6c0,0.1,0,0.2,0,0.2l-0.2,19.2c0.4,2.9-0.5,5.9-2.4,8.2c-2,2.3-4.8,3.6-7.8,3.6
				c-0.1,0-0.2,0-0.3,0C547.7,756.2,522.2,756.5,522.1,756.5C522.2,756.5,522.2,756.5,522.1,756.5z"/>
			<g>
				<path class="st4" d="M518.5,714c0.4,0,0.9,0,1.3,0.1l26.6,3.9c3.9,0.6,10,3.4,10.5,7.3l-0.2,19.3c0.8,5.4-3.4,10.2-8.8,10.2
					c-0.1,0-0.2,0-0.3,0l-25.5,0.3c-4.1-0.1-7.2-4.2-8-8.3l-4.3-22.2C508.8,719,513.1,714,518.5,714 M518.5,711L518.5,711
					c-3.5,0-6.9,1.6-9.1,4.3c-2.3,2.7-3.2,6.3-2.5,9.8l4.3,22.2c1,5.2,5.1,10.5,10.9,10.7c0,0,0.1,0,0.1,0c0,0,0,0,0,0l25.5-0.3
					c0.1,0,0.2,0,0.3,0c3.5,0,6.7-1.5,9-4.1c2.2-2.6,3.2-5.9,2.8-9.2l0.2-19c0-0.2,0-0.3,0-0.5c-0.8-5.6-8.1-9.1-13.1-9.8l-26.6-3.9
					C519.7,711,519.1,711,518.5,711L518.5,711z"/>
			</g>
		</g>
		<g>
			<path d="M728.3,409.7c-0.2,0-0.4,0-0.6-0.1c-0.2-0.1-20.2-8.4-40-17.3c-40.9-18.3-41.1-21.3-41.2-22.8c-2-31,33.8-44.8,70.6-56.4
				c0.1,0,0.3-0.1,0.4-0.1c0.6,0,1.2,0.4,1.4,1c0.2,0.5,18.1,48,10.8,94.4c-0.1,0.5-0.3,0.9-0.7,1.1
				C728.8,409.6,728.5,409.7,728.3,409.7z"/>
			<path class="st4" d="M717.6,314.5c0,0,18,47.1,10.7,93.7c0,0-79.9-33.1-80.3-38.8C646,339.5,680.3,326.2,717.6,314.5
				 M717.6,311.5c-0.3,0-0.6,0-0.9,0.1c-21,6.6-37.6,12.7-50.3,21C651,342.7,644,354.8,645,369.6c0.1,2.1,1.3,4.2,14.3,10.9
				c6.7,3.5,16.1,7.9,27.7,13.1c19.8,8.9,39.9,17.2,40.1,17.3c0.4,0.2,0.8,0.2,1.1,0.2c0.5,0,1-0.1,1.5-0.4c0.8-0.5,1.4-1.2,1.5-2.2
				c7.3-46.8-10.1-93.2-10.9-95.2C719.9,312.2,718.8,311.5,717.6,311.5L717.6,311.5z"/>
		</g>
		<g>
			<path d="M431.2,423.9c-0.3,0-0.5-0.1-0.8-0.2c-0.4-0.3-0.7-0.7-0.7-1.2c-2.4-46.8,12-105,12.1-105.6c0.1-0.4,0.4-0.8,0.8-1
				c0.2-0.1,0.4-0.2,0.7-0.2c0.2,0,0.4,0,0.6,0.1l4.6,2c34.9,15,70.9,30.5,65.9,59.9c-0.3,1.5-0.7,4.3-42,25.7
				c-20.1,10.4-40.3,20.3-40.5,20.4C431.6,423.8,431.4,423.9,431.2,423.9z"/>
			<path class="st4" d="M443.3,317.2c35.9,15.5,74.6,30.7,69.6,60.2c-1,5.7-81.7,45-81.7,45C428.7,375.3,443.3,317.2,443.3,317.2
				 M443.3,314.2c-0.5,0-0.9,0.1-1.3,0.3c-0.8,0.4-1.4,1.1-1.6,2c-0.1,0.6-14.6,59.1-12.2,106.1c0.1,1,0.6,1.9,1.5,2.4
				c0.5,0.3,1,0.4,1.5,0.4c0.4,0,0.9-0.1,1.3-0.3c0.2-0.1,20.4-10,40.5-20.4c41.9-21.8,42.4-24.5,42.8-26.8
				c2.4-13.9-3.8-26-18.9-37.1c-12.8-9.4-30.6-17-47.8-24.4c-1.5-0.7-3.1-1.3-4.6-2C444.1,314.3,443.7,314.2,443.3,314.2
				L443.3,314.2z"/>
		</g>
		<g>
			<path class="st5" d="M452.6,348.6c0.4-4,5-6,8.3-3.6l16.2,12.2l16.2,12.2c3.2,2.4,2.7,7.5-1,9.1l-18.3,7.9l-18.3,7.9
				c-3.7,1.6-7.7-1.5-7.3-5.5l2.2-20.1L452.6,348.6z"/>
		</g>
		<g>
			<path class="st5" d="M700,344.3c3.5-2,7.8,0.5,7.8,4.6l-0.4,20.2l-0.4,20.2c-0.1,4.1-4.5,6.6-7.9,4.5l-17.2-10.2l-17.2-10.2
				c-3.5-2-3.4-7.1,0.2-9.1l17.6-10L700,344.3z"/>
		</g>
		<g>
			<path d="M363.1,767c-3.7,0-7.9-0.3-11.1-2.4c-4.5-2.9-7.1-8.8-9.2-13.5l-0.4-0.9c-12.1-26.9-17.4-71.6-15.9-132.8
				c0.4-17.2,1.5-35.4,9.1-53.2c1.9-4.5,4.7-10.2,9.3-14.8c5.1-5.2,12.3-8.9,22.1-11.3c9.5-2.3,20.3-4.3,34-6.1
				c4.2-0.6,7.3-2.2,9.4-4.9c4.1-5.5,3.4-14.7,2-23.7c-3.6-23.1-2.6-46.5,2.8-67.5c5.2-20.2,12.9-35.6,23.6-47.1
				c12.5-13.4,31.1-25.1,49.7-31.1c16.2-5.3,33.3-8,49.4-10.1c14.6-2,29.1-2.9,45.6-2.9c7.6,0,15.7,0.2,25.6,0.6
				c39.5,1.6,71.7,12.5,95.7,32.5c34.1,28.5,50.6,71.8,45.3,118.9c-1.8,15.7-3.4,22.3-5.7,31.4c-1.4,5.7-3,12.1-5,22.3
				c-0.4,2.1-0.8,4-1.2,5.9c-3.5,17.4-5.7,27.9-4,46.4c4.1,45-10.3,118.8-15.7,146.5c-0.4,2.1-0.8,4-1.1,5.5c-0.4,2.2-1,5-2.7,7.2
				c-3.6,4.4-16.4,5.1-23.7,5.1h-15.8c-3.5,0-6.4-2.6-6.8-6.1l-0.8-24.7H535.2l0.5,23.4c0,0.1,0,0.1,0,0.2c-0.4,4.1-3.8,7.1-7.9,7.1
				h-41.2c-4,0-7.5-2.7-8.4-6.7c-1.9-7.8-5-20.3-6-24.1h-77.7l-1.3,24.9c0,3.2-2.7,5.9-6,5.9h-19.1c-0.8,0-1.6,0-2.4,0
				C365,767,364,767,363.1,767z"/>
			<path class="st4" d="M583.3,346.2c8.3,0,16.7,0.2,25.5,0.6c33.8,1.4,68.3,10.1,94.8,32.2c35.2,29.4,49.8,72.8,44.7,117.6
				c-2.9,25.3-5.4,26.8-10.7,53.5c-4.1,20.7-7.1,31.9-5.2,52.8c4.4,48.2-12.4,129.1-16.7,151.7c-0.4,2.3-0.9,4.7-2.4,6.5
				c-3.4,4.1-17.5,4.5-22.5,4.5c-5.3,0-10.5,0-15.8,0c-2.7,0-5-2.1-5.3-4.8l-0.9-26H533.7l0.6,25c-0.3,3.3-3.1,5.8-6.4,5.8l-41.2,0
				c-3.3,0-6.2-2.3-6.9-5.5c-2.3-9.4-6.3-25.3-6.3-25.3h-80.3l-1.3,26.3c0,2.5-2,4.5-4.5,4.5c-6.4,0-12.7,0-19.1,0
				c-1.6,0-3.4,0.1-5.2,0.1c-3.6,0-7.5-0.3-10.3-2.2c-4.4-2.9-7-9.2-9-13.8c-9.9-22.1-17.5-62.3-15.8-132.1
				c0.4-18.2,1.7-35.6,9-52.6c2.2-5.2,5-10.3,8.9-14.3c5.7-5.8,13.5-9,21.4-10.9c11.1-2.7,22.5-4.6,33.8-6.1
				c16.2-2.1,14.5-18.7,12.7-30.4c-3.4-22.1-2.8-45.2,2.8-66.9c4.3-16.9,11.2-33.6,23.2-46.5c12.9-13.9,31.7-25.1,49.1-30.7
				c15.8-5.1,32.7-7.9,49.1-10.1C553.6,346.9,568.3,346.2,583.3,346.2 M583.3,343.2c-16.6,0-31.1,0.9-45.8,2.9
				c-16.1,2.2-33.3,4.9-49.6,10.2c-18.8,6.1-37.7,17.9-50.3,31.5c-10.9,11.7-18.7,27.3-23.9,47.8c-5.4,21.2-6.4,44.8-2.8,68.1
				c1.3,8.7,2.1,17.5-1.7,22.6c-1.8,2.4-4.5,3.8-8.4,4.3c-13.7,1.8-24.6,3.8-34.1,6.1c-10,2.5-17.5,6.3-22.8,11.7
				c-4.7,4.8-7.6,10.7-9.6,15.3c-7.8,18-8.8,36.4-9.2,53.7c-1.5,61.5,3.9,106.4,16.1,133.4l0.4,0.9c2.2,4.9,4.9,11,9.7,14.2
				c3.6,2.3,8,2.6,11.9,2.6c1,0,1.9,0,2.8,0c0.8,0,1.6,0,2.4,0h19.1c4.1,0,7.4-3.3,7.5-7.4l1.2-23.4h75.1c1.2,4.7,4,15.8,5.7,23
				c1.1,4.6,5.2,7.8,9.9,7.8l41.2,0c4.9,0,8.9-3.7,9.4-8.5c0-0.1,0-0.2,0-0.4l-0.5-21.9h129.2l0.8,23.1c0,0.1,0,0.1,0,0.2
				c0.4,4.3,4,7.5,8.2,7.5h15.8c9.2,0,21.1-1,24.9-5.6c2-2.4,2.6-5.6,3-7.8c0.3-1.6,0.7-3.4,1.1-5.5c5.4-27.8,19.8-101.7,15.7-147
				c-1.7-18.3,0.5-28.7,4-46c0.4-1.9,0.8-3.9,1.2-5.9c2-10.2,3.6-16.6,5-22.2c2.3-9.1,3.9-15.8,5.7-31.6
				c5.4-47.6-11.2-91.4-45.8-120.2c-12.8-10.6-28.1-18.9-45.6-24.4c-15.4-4.9-32.5-7.7-50.9-8.5
				C599.1,343.3,590.9,343.2,583.3,343.2L583.3,343.2z"/>
		</g>
		<ellipse class="st8" cx="582.4" cy="471.4" rx="9.4" ry="4.3"/>
		<path class="st9" d="M523.5,452.6c-1.4,4.1-8.1,9.1-16.3,6.4c-8.2-2.8-14.8-12.3-13.4-16.4c1.4-4.1,9.2-5.2,17.3-2.4
			C519.3,442.9,524.8,448.5,523.5,452.6z"/>
		<path class="st9" d="M651.1,453.2c1.5,4,10.4,7.8,18.5,4.7c8.1-3.1,12.3-11.7,10.8-15.8c-1.5-4-9.3-4.8-17.4-1.8
			C654.9,443.4,649.6,449.1,651.1,453.2z"/>
		<g>
			<g>
				<path class="st4" d="M565.3,483.1c0.4,3.6,2.1,9.1,6.3,9.7c1.9,0.3,3.6-0.7,5.1-1.7c2.7-1.8,4.3-4.8,7.4-2.2
					c2.9,2.5,4.6,5.8,8.9,3.8c2.9-1.4,6.9-5.2,6.8-8.6c0-1.9-3-1.9-3,0c0,1.6-1.8,3.3-2.9,4.3c-2,1.8-3.3,2.6-5.5,0.8
					c-1.7-1.3-2.8-3.8-4.9-4.6c-2.1-0.7-3.6,0.4-5.2,1.6c-1.2,0.9-2.6,2.7-4.1,3c-4.4,1.1-5.5-3.1-5.9-6.1
					C568.1,481.2,565.1,481.2,565.3,483.1L565.3,483.1z"/>
			</g>
		</g>
		<ellipse class="st7" cx="694.3" cy="471.4" rx="21.5" ry="10"/>
		<ellipse class="st7" cx="487.3" cy="470.1" rx="21.5" ry="10"/>
		<g>
			<g>
				<path class="st4" d="M453.5,469.4c-21.2-6.2-44-7.9-65.9-5c-1.9,0.3-1.9,3.3,0,3c21.6-2.9,44.2-1.2,65.1,4.9
					C454.6,472.8,455.4,470,453.5,469.4L453.5,469.4z"/>
			</g>
		</g>
		<g>
			<g>
				<path class="st4" d="M453.2,481.9c-25.3-5.8-51.6-3.3-75.4,7c-1.8,0.8-0.2,3.3,1.5,2.6c23-9.9,48.6-12.3,73.1-6.7
					C454.3,485.2,455.1,482.3,453.2,481.9L453.2,481.9z"/>
			</g>
		</g>
		<g>
			<g>
				<path class="st4" d="M448,494.1c-12.1-2.3-25.6,1-37.4,3.9c-11.3,2.7-22.1,7.1-30.4,15.5c-1.4,1.4,0.8,3.5,2.1,2.1
					c7.9-8,18.3-12.1,29.1-14.7c11.2-2.7,24.3-6.1,35.8-3.9C449.1,497.4,449.9,494.5,448,494.1L448,494.1z"/>
			</g>
		</g>
		<g>
			<g>
				<path class="st4" d="M736.7,465.6c24.5-3.2,49.2-3.8,73.8-1.9c1.9,0.2,1.9-2.8,0-3c-24.6-2-49.3-1.3-73.8,1.9
					C734.8,462.8,734.8,465.8,736.7,465.6L736.7,465.6z"/>
			</g>
		</g>
		<g>
			<g>
				<path class="st4" d="M734.8,480.8c23.1-2.8,47.1-1.6,65.7,14.1c1.5,1.2,3.6-0.9,2.1-2.1c-19.2-16.2-43.8-17.8-67.8-14.9
					C732.9,478.1,732.9,481.1,734.8,480.8L734.8,480.8z"/>
			</g>
		</g>
		<g>
			<g>
				<path class="st4" d="M737.5,496.9c23.3,1.9,43.4,14.9,62.5,27.4c1.6,1.1,3.1-1.5,1.5-2.6c-19.6-12.9-40.1-25.8-64-27.8
					C735.6,493.7,735.6,496.7,737.5,496.9L737.5,496.9z"/>
			</g>
		</g>
	</g>
</g>
<g id="圖層_4" class="st1">
	<g class="st2">
		<path class="st10" d="M369,584.1c-10.5-12-15.9-8.5-26.8-20.1c-10.5-11.2-28.5-37.3-34.4-51.8c-4.7-11.6-6.5-25.1-1.2-36.7
			c6.6-14.6,22.1-21.6,34.8-29.9c8.2-5.4,29.9-20.5,19.4-32c-0.8-0.9-1.9-1.6-3-2.3c-18.7-10.5-87,21.6-92,74.1
			c-3,32,15.2,59.7,33.9,83.8c5.3,6.8,10.8,13.5,16.8,19.7c10.9,11.3,23.9,21.4,38.8,26.8c0.6,0.2,1.2,0.4,1.8,0.2
			c0.5-0.1,0.9-0.5,1.3-0.9C364.9,608.7,377,593.3,369,584.1z"/>
		<path class="st10" d="M557,725.3l-0.2,19.3c0.8,5.5-3.5,10.3-9.1,10.2l-25.5,0.3c-4.1-0.1-7.2-4.2-8-8.3l-4.3-22.2
			c-1.2-6,4-11.4,10-10.5l26.6,3.9C550.3,718.5,556.4,721.4,557,725.3z"/>
		<path class="st10" d="M648,369.4c-2-29.8,32.3-43.2,69.6-54.9c0,0,18,47.1,10.7,93.7C728.3,408.2,648.4,375.1,648,369.4z"/>
		<path class="st10" d="M512.8,377.4c5-29.5-33.7-44.7-69.6-60.2c0,0-14.5,58.1-12.1,105.2C431.2,422.4,511.9,383.1,512.8,377.4z"/>
		<g>
			<path class="st5" d="M452.6,348.6c0.4-4,5-6,8.3-3.6l16.2,12.2l16.2,12.2c3.2,2.4,2.7,7.5-1,9.1l-18.3,7.9l-18.3,7.9
				c-3.7,1.6-7.7-1.5-7.3-5.5l2.2-20.1L452.6,348.6z"/>
		</g>
		<g>
			<path class="st5" d="M700,344.3c3.5-2,7.8,0.5,7.8,4.6l-0.4,20.2l-0.4,20.2c-0.1,4.1-4.5,6.6-7.9,4.5l-17.2-10.2l-17.2-10.2
				c-3.5-2-3.4-7.1,0.2-9.1l17.6-10L700,344.3z"/>
		</g>
		<g>
			<path class="st4" d="M363.1,767c-3.7,0-7.9-0.3-11.1-2.4c-4.5-2.9-7.1-8.8-9.2-13.5l-0.4-0.9c-12.1-26.9-17.4-71.6-15.9-132.8
				c0.4-17.2,1.5-35.4,9.1-53.2c1.9-4.5,4.7-10.2,9.3-14.8c5.1-5.2,12.3-8.9,22.1-11.3c9.5-2.3,20.3-4.3,34-6.1
				c4.2-0.6,7.3-2.2,9.4-4.9c4.1-5.5,3.4-14.7,2-23.7c-3.6-23.1-2.6-46.5,2.8-67.5c5.2-20.2,12.9-35.6,23.6-47.1
				c12.5-13.4,31.1-25.1,49.7-31.1c16.2-5.3,33.3-8,49.4-10.1c14.6-2,29.1-2.9,45.6-2.9c7.6,0,15.7,0.2,25.6,0.6
				c39.5,1.6,71.7,12.5,95.7,32.5c34.1,28.5,50.6,71.8,45.3,118.9c-1.8,15.7-3.4,22.3-5.7,31.4c-1.4,5.7-3,12.1-5,22.3
				c-0.4,2.1-0.8,4-1.2,5.9c-3.5,17.4-5.7,27.9-4,46.4c4.1,45-10.3,118.8-15.7,146.5c-0.4,2.1-0.8,4-1.1,5.5c-0.4,2.2-1,5-2.7,7.2
				c-3.6,4.4-16.4,5.1-23.7,5.1h-15.8c-3.5,0-6.4-2.6-6.8-6.1l-0.8-24.7H535.2l0.5,23.4c0,0.1,0,0.1,0,0.2c-0.4,4.1-3.8,7.1-7.9,7.1
				h-41.2c-4,0-7.5-2.7-8.4-6.7c-1.9-7.8-5-20.3-6-24.1h-77.7l-1.3,24.9c0,3.2-2.7,5.9-6,5.9h-19.1c-0.8,0-1.6,0-2.4,0
				C365,767,364,767,363.1,767z"/>
			<path d="M583.3,346.2c8.3,0,16.7,0.2,25.5,0.6c33.8,1.4,68.3,10.1,94.8,32.2c35.2,29.4,49.8,72.8,44.7,117.6
				c-2.9,25.3-5.4,26.8-10.7,53.5c-4.1,20.7-7.1,31.9-5.2,52.8c4.4,48.2-12.4,129.1-16.7,151.7c-0.4,2.3-0.9,4.7-2.4,6.5
				c-3.4,4.1-17.5,4.5-22.5,4.5c-5.3,0-10.5,0-15.8,0c-2.7,0-5-2.1-5.3-4.8l-0.9-26H533.7l0.6,25c-0.3,3.3-3.1,5.8-6.4,5.8l-41.2,0
				c-3.3,0-6.2-2.3-6.9-5.5c-2.3-9.4-6.3-25.3-6.3-25.3h-80.3l-1.3,26.3c0,2.5-2,4.5-4.5,4.5c-6.4,0-12.7,0-19.1,0
				c-1.6,0-3.4,0.1-5.2,0.1c-3.6,0-7.5-0.3-10.3-2.2c-4.4-2.9-7-9.2-9-13.8c-9.9-22.1-17.5-62.3-15.8-132.1
				c0.4-18.2,1.7-35.6,9-52.6c2.2-5.2,5-10.3,8.9-14.3c5.7-5.8,13.5-9,21.4-10.9c11.1-2.7,22.5-4.6,33.8-6.1
				c16.2-2.1,14.5-18.7,12.7-30.4c-3.4-22.1-2.8-45.2,2.8-66.9c4.3-16.9,11.2-33.6,23.2-46.5c12.9-13.9,31.7-25.1,49.1-30.7
				c15.8-5.1,32.7-7.9,49.1-10.1C553.6,346.9,568.3,346.2,583.3,346.2 M583.3,343.2c-16.6,0-31.1,0.9-45.8,2.9
				c-16.1,2.2-33.3,4.9-49.6,10.2c-18.8,6.1-37.7,17.9-50.3,31.5c-10.9,11.7-18.7,27.3-23.9,47.8c-5.4,21.2-6.4,44.8-2.8,68.1
				c1.3,8.7,2.1,17.5-1.7,22.6c-1.8,2.4-4.5,3.8-8.4,4.3c-13.7,1.8-24.6,3.8-34.1,6.1c-10,2.5-17.5,6.3-22.8,11.7
				c-4.7,4.8-7.6,10.7-9.6,15.3c-7.8,18-8.8,36.4-9.2,53.7c-1.5,61.5,3.9,106.4,16.1,133.4l0.4,0.9c2.2,4.9,4.9,11,9.7,14.2
				c3.6,2.3,8,2.6,11.9,2.6c1,0,1.9,0,2.8,0c0.8,0,1.6,0,2.4,0h19.1c4.1,0,7.4-3.3,7.5-7.4l1.2-23.4h75.1c1.2,4.7,4,15.8,5.7,23
				c1.1,4.6,5.2,7.8,9.9,7.8l41.2,0c4.9,0,8.9-3.7,9.4-8.5c0-0.1,0-0.2,0-0.4l-0.5-21.9h129.2l0.8,23.1c0,0.1,0,0.1,0,0.2
				c0.4,4.3,4,7.5,8.2,7.5h15.8c9.2,0,21.1-1,24.9-5.6c2-2.4,2.6-5.6,3-7.8c0.3-1.6,0.7-3.4,1.1-5.5c5.4-27.8,19.8-101.7,15.7-147
				c-1.7-18.3,0.5-28.7,4-46c0.4-1.9,0.8-3.9,1.2-5.9c2-10.2,3.6-16.6,5-22.2c2.3-9.1,3.9-15.8,5.7-31.6
				c5.4-47.6-11.2-91.4-45.8-120.2c-12.8-10.6-28.1-18.9-45.6-24.4c-15.4-4.9-32.5-7.7-50.9-8.5
				C599.1,343.3,590.9,343.2,583.3,343.2L583.3,343.2z"/>
		</g>
		<path class="st11" d="M722,448c0,72,8,92-139,96c-139,0-140-29-139-96c0.8-53,62.2-71,139-71S722,395,722,448z"/>
		<ellipse cx="582.4" cy="471.4" rx="9.4" ry="4.3"/>
		<path class="st12" d="M523.5,452.6c-1.4,4.1-8.1,9.1-16.3,6.4c-8.2-2.8-14.8-12.3-13.4-16.4c1.4-4.1,9.2-5.2,17.3-2.4
			C519.3,442.9,524.8,448.5,523.5,452.6z"/>
		<path class="st13" d="M651.1,453.2c1.5,4,10.4,7.8,18.5,4.7c8.1-3.1,12.3-11.7,10.8-15.8c-1.5-4-9.3-4.8-17.4-1.8
			C654.9,443.4,649.6,449.1,651.1,453.2z"/>
		<g>
			<g>
				<path d="M565.3,483.1c0.4,3.6,2.1,9.1,6.3,9.7c1.9,0.3,3.6-0.7,5.1-1.7c2.7-1.8,4.3-4.8,7.4-2.2c2.9,2.5,4.6,5.8,8.9,3.8
					c2.9-1.4,6.9-5.2,6.8-8.6c0-1.9-3-1.9-3,0c0,1.6-1.8,3.3-2.9,4.3c-2,1.8-3.3,2.6-5.5,0.8c-1.7-1.3-2.8-3.8-4.9-4.6
					c-2.1-0.7-3.6,0.4-5.2,1.6c-1.2,0.9-2.6,2.7-4.1,3c-4.4,1.1-5.5-3.1-5.9-6.1C568.1,481.2,565.1,481.2,565.3,483.1L565.3,483.1z"
					/>
			</g>
		</g>
		<ellipse class="st7" cx="694.3" cy="471.4" rx="21.5" ry="10"/>
		<ellipse class="st7" cx="487.3" cy="470.1" rx="21.5" ry="10"/>
		<g>
			<g>
				<path d="M453.5,469.4c-21.2-6.2-44-7.9-65.9-5c-1.9,0.3-1.9,3.3,0,3c21.6-2.9,44.2-1.2,65.1,4.9
					C454.6,472.8,455.4,470,453.5,469.4L453.5,469.4z"/>
			</g>
		</g>
		<g>
			<g>
				<path d="M453.2,481.9c-25.3-5.8-51.6-3.3-75.4,7c-1.8,0.8-0.2,3.3,1.5,2.6c23-9.9,48.6-12.3,73.1-6.7
					C454.3,485.2,455.1,482.3,453.2,481.9L453.2,481.9z"/>
			</g>
		</g>
		<g>
			<g>
				<path d="M448,494.1c-12.1-2.3-25.6,1-37.4,3.9c-11.3,2.7-22.1,7.1-30.4,15.5c-1.4,1.4,0.8,3.5,2.1,2.1
					c7.9-8,18.3-12.1,29.1-14.7c11.2-2.7,24.3-6.1,35.8-3.9C449.1,497.4,449.9,494.5,448,494.1L448,494.1z"/>
			</g>
		</g>
		<g>
			<g>
				<path d="M736.7,465.6c24.5-3.2,49.2-3.8,73.8-1.9c1.9,0.2,1.9-2.8,0-3c-24.6-2-49.3-1.3-73.8,1.9
					C734.8,462.8,734.8,465.8,736.7,465.6L736.7,465.6z"/>
			</g>
		</g>
		<g>
			<g>
				<path d="M734.8,480.8c23.1-2.8,47.1-1.6,65.7,14.1c1.5,1.2,3.6-0.9,2.1-2.1c-19.2-16.2-43.8-17.8-67.8-14.9
					C732.9,478.1,732.9,481.1,734.8,480.8L734.8,480.8z"/>
			</g>
		</g>
		<g>
			<g>
				<path d="M737.5,496.9c23.3,1.9,43.4,14.9,62.5,27.4c1.6,1.1,3.1-1.5,1.5-2.6c-19.6-12.9-40.1-25.8-64-27.8
					C735.6,493.7,735.6,496.7,737.5,496.9L737.5,496.9z"/>
			</g>
		</g>
		<path class="st11" d="M692,742c-8.1,0-15.9,0.9-22.9,2.5l0.5,16.1c0.3,2.7,2.5,4.8,5.3,4.8c5.3,0,10.5,0,15.8,0
			c5.1,0,19.2-0.4,22.5-4.5c1.5-1.8,2-4.2,2.4-6.5c0.5-2.4,1.1-5.6,1.8-9.3C709.8,743.1,701.2,742,692,742z"/>
		<path class="st11" d="M476.3,746.1c1.2,4.6,2.4,9.8,3.4,13.8c0.8,3.2,3.6,5.5,6.9,5.5l41.2,0c3.3,0,6.1-2.5,6.4-5.8l-0.3-13.5
			c-8.5-2.6-18.4-4.2-28.9-4.2C494.5,742,484.7,743.5,476.3,746.1z"/>
		<path class="st11" d="M368,739c-9.8,0-19,1.5-26.9,4c0.9,2.3,1.8,4.5,2.7,6.6c2.1,4.6,4.7,10.9,9,13.8c4.2,2.8,10.7,2.1,15.5,2.1
			c6.4,0,12.7,0,19.1,0c2.5,0,4.5-2,4.5-4.5l0.9-18.6C385.4,740.2,377,739,368,739z"/>
	</g>
</g>
<g id="圖層_5" class="st1">
	<g class="st2">
		<g>
			<path class="st4" d="M356.7,617.6c-0.7,0-1.3-0.2-1.9-0.4c-13.4-4.8-26.7-14-39.4-27.2c-5.3-5.5-10.6-11.8-16.9-19.9
				c-19.5-25.3-37.2-53.1-34.2-84.9c1.9-20.6,14-40.6,33.8-56.2c16.1-12.7,36.3-21.2,50.3-21.2c4.1,0,7.5,0.7,10.1,2.2
				c1.4,0.8,2.5,1.6,3.3,2.6c2.5,2.7,3.5,5.8,3.1,9.2c-0.9,7.2-8.6,15.6-22.8,25c-2.5,1.6-5.1,3.2-7.6,4.8
				c-10.6,6.5-21.5,13.1-26.6,24.5c-6.1,13.5-1.9,28.1,1.2,35.5c5.9,14.3,23.7,40.2,34.1,51.3c5.1,5.5,8.9,7.4,12.8,9.4
				c4.1,2.1,8.4,4.3,13.9,10.7c7.8,8.9-0.9,23.4-10.6,33.1c-0.4,0.4-1,1-1.9,1.3C357.3,617.6,357,617.6,356.7,617.6z"/>
			<path d="M348.5,409.4c3.8,0,7,0.6,9.3,2c1.1,0.6,2.1,1.4,3,2.3c10.5,11.5-11.2,26.6-19.4,32c-12.6,8.4-28.2,15.3-34.8,29.9
				c-5.3,11.7-3.5,25.2,1.2,36.7c5.9,14.5,23.9,40.6,34.4,51.8c10.9,11.6,16.3,8.1,26.8,20.1c8.1,9.2-4,24.6-10.5,31.1
				c-0.4,0.4-0.8,0.7-1.3,0.9c-0.2,0-0.3,0.1-0.5,0.1c-0.5,0-0.9-0.2-1.4-0.3c-14.9-5.4-27.9-15.5-38.8-26.8
				c-6-6.2-11.5-12.9-16.8-19.7c-18.7-24.2-36.9-51.8-33.9-83.8C270.2,439.7,322.7,409.4,348.5,409.4 M348.5,406.4
				c-14.5,0-34.6,8.4-51.2,21.5c-20.2,15.9-32.4,36.2-34.4,57.3c-3,32.3,14.8,60.4,34.5,86c6.3,8.1,11.7,14.5,17,20
				c12.9,13.4,26.4,22.6,40,27.5c0.5,0.2,1.4,0.5,2.4,0.5c0.4,0,0.9-0.1,1.3-0.2c1.3-0.4,2.1-1.2,2.6-1.6c2.2-2.2,7.8-8.2,11.3-15.3
				c4.9-10.2,2.4-16.4-0.6-19.8c-5.7-6.5-10.1-8.8-14.4-11c-3.8-2-7.5-3.9-12.4-9.1c-10.4-11.1-28-36.7-33.8-50.9
				c-3-7.3-7.1-21.4-1.2-34.4c5-10.9,15.7-17.5,26-23.8c2.5-1.6,5.2-3.2,7.7-4.8c14.8-9.8,22.5-18.3,23.4-26.1
				c0.5-3.8-0.7-7.3-3.5-10.4c-1-1.1-2.2-2-3.7-2.8C356.5,407.2,352.9,406.4,348.5,406.4L348.5,406.4z"/>
		</g>
		<g>
			<path class="st4" d="M522.1,756.5c-5-0.2-8.6-4.9-9.5-9.5l-4.3-22.2c-0.6-3.1,0.2-6.2,2.2-8.6c2-2.4,4.9-3.8,8-3.8
				c0.5,0,1,0,1.5,0.1l26.6,3.9c4.3,0.6,11.1,3.8,11.8,8.6c0,0.1,0,0.2,0,0.2l-0.2,19.2c0.4,2.9-0.5,5.9-2.4,8.2
				c-2,2.3-4.8,3.6-7.8,3.6c-0.1,0-0.2,0-0.3,0C547.7,756.2,522.2,756.5,522.1,756.5C522.2,756.5,522.2,756.5,522.1,756.5z"/>
			<path d="M518.5,714c0.4,0,0.9,0,1.3,0.1l26.6,3.9c3.9,0.6,10,3.4,10.5,7.3l-0.2,19.3c0.8,5.4-3.4,10.2-8.8,10.2
				c-0.1,0-0.2,0-0.3,0l-25.5,0.3c-4.1-0.1-7.2-4.2-8-8.3l-4.3-22.2C508.8,719,513.1,714,518.5,714 M518.5,711L518.5,711
				c-3.5,0-6.9,1.6-9.1,4.3c-2.3,2.7-3.2,6.3-2.5,9.8l4.3,22.2c1,5.2,5.1,10.5,10.9,10.7c0,0,0.1,0,0.1,0c0,0,0,0,0,0l25.5-0.3
				c0.1,0,0.2,0,0.3,0c3.5,0,6.7-1.5,9-4.1c2.2-2.6,3.2-5.9,2.8-9.2l0.2-19c0-0.2,0-0.3,0-0.5c-0.8-5.6-8.1-9.1-13.1-9.8l-26.6-3.9
				C519.7,711,519.1,711,518.5,711L518.5,711z"/>
		</g>
		<g>
			<path class="st4" d="M728.3,409.7c-0.2,0-0.4,0-0.6-0.1c-0.2-0.1-20.2-8.4-40-17.3c-40.9-18.3-41.1-21.3-41.2-22.8
				c-2-31,33.8-44.8,70.6-56.4c0.1,0,0.3-0.1,0.4-0.1c0.6,0,1.2,0.4,1.4,1c0.2,0.5,18.1,48,10.8,94.4c-0.1,0.5-0.3,0.9-0.7,1.1
				C728.8,409.6,728.5,409.7,728.3,409.7z"/>
			<path d="M717.6,314.5c0,0,18,47.1,10.7,93.7c0,0-79.9-33.1-80.3-38.8C646,339.5,680.3,326.2,717.6,314.5 M717.6,311.5
				c-0.3,0-0.6,0-0.9,0.1c-21,6.6-37.6,12.7-50.3,21C651,342.7,644,354.8,645,369.6c0.1,2.1,1.3,4.2,14.3,10.9
				c6.7,3.5,16.1,7.9,27.7,13.1c19.8,8.9,39.9,17.2,40.1,17.3c0.4,0.2,0.8,0.2,1.1,0.2c0.5,0,1-0.1,1.5-0.4c0.8-0.5,1.4-1.2,1.5-2.2
				c7.3-46.8-10.1-93.2-10.9-95.2C719.9,312.2,718.8,311.5,717.6,311.5L717.6,311.5z"/>
		</g>
		<g>
			<path class="st4" d="M431.2,423.9c-0.3,0-0.5-0.1-0.8-0.2c-0.4-0.3-0.7-0.7-0.7-1.2c-2.4-46.8,12-105,12.1-105.6
				c0.1-0.4,0.4-0.8,0.8-1c0.2-0.1,0.4-0.2,0.7-0.2c0.2,0,0.4,0,0.6,0.1l4.6,2c34.9,15,70.9,30.5,65.9,59.9
				c-0.3,1.5-0.7,4.3-42,25.7c-20.1,10.4-40.3,20.3-40.5,20.4C431.6,423.8,431.4,423.9,431.2,423.9z"/>
			<path d="M443.3,317.2c35.9,15.5,74.6,30.7,69.6,60.2c-1,5.7-81.7,45-81.7,45C428.7,375.3,443.3,317.2,443.3,317.2 M443.3,314.2
				c-0.5,0-0.9,0.1-1.3,0.3c-0.8,0.4-1.4,1.1-1.6,2c-0.1,0.6-14.6,59.1-12.2,106.1c0.1,1,0.6,1.9,1.5,2.4c0.5,0.3,1,0.4,1.5,0.4
				c0.4,0,0.9-0.1,1.3-0.3c0.2-0.1,20.4-10,40.5-20.4c41.9-21.8,42.4-24.5,42.8-26.8c2.4-13.9-3.8-26-18.9-37.1
				c-12.8-9.4-30.6-17-47.8-24.4c-1.5-0.7-3.1-1.3-4.6-2C444.1,314.3,443.7,314.2,443.3,314.2L443.3,314.2z"/>
		</g>
		<path class="st14" d="M452.6,348.6c0.4-4,5-6,8.3-3.6l16.2,12.2l16.2,12.2c3.2,2.4,2.7,7.5-1,9.1l-18.3,7.9l-18.3,7.9
			c-3.7,1.6-7.7-1.5-7.3-5.5l2.2-20.1L452.6,348.6z"/>
		<path class="st14" d="M700,344.3c3.5-2,7.8,0.5,7.8,4.6l-0.4,20.2l-0.4,20.2c-0.1,4.1-4.5,6.6-7.9,4.5l-17.2-10.2l-17.2-10.2
			c-3.5-2-3.4-7.1,0.2-9.1l17.6-10L700,344.3z"/>
		<g>
			<path class="st4" d="M363.1,767c-3.7,0-7.9-0.3-11.1-2.4c-4.5-2.9-7.1-8.8-9.2-13.5l-0.4-0.9c-12.1-26.9-17.4-71.6-15.9-132.8
				c0.4-17.2,1.5-35.4,9.1-53.2c1.9-4.5,4.7-10.2,9.3-14.8c5.1-5.2,12.3-8.9,22.1-11.3c9.5-2.3,20.3-4.3,34-6.1
				c4.2-0.6,7.3-2.2,9.4-4.9c4.1-5.5,3.4-14.7,2-23.7c-3.6-23.1-2.6-46.5,2.8-67.5c5.2-20.2,12.9-35.6,23.6-47.1
				c12.5-13.4,31.1-25.1,49.7-31.1c16.2-5.3,33.3-8,49.4-10.1c14.6-2,29.1-2.9,45.6-2.9c7.6,0,15.7,0.2,25.6,0.6
				c39.5,1.6,71.7,12.5,95.7,32.5c34.1,28.5,50.6,71.8,45.3,118.9c-1.8,15.7-3.4,22.3-5.7,31.4c-1.4,5.7-3,12.1-5,22.3
				c-0.4,2.1-0.8,4-1.2,5.9c-3.5,17.4-5.7,27.9-4,46.4c4.1,45-10.3,118.8-15.7,146.5c-0.4,2.1-0.8,4-1.1,5.5c-0.4,2.2-1,5-2.7,7.2
				c-3.6,4.4-16.4,5.1-23.7,5.1h-15.8c-3.5,0-6.4-2.6-6.8-6.1l-0.8-24.7H535.2l0.5,23.4c0,0.1,0,0.1,0,0.2c-0.4,4.1-3.8,7.1-7.9,7.1
				h-41.2c-4,0-7.5-2.7-8.4-6.7c-1.9-7.8-5-20.3-6-24.1h-77.7l-1.3,24.9c0,3.2-2.7,5.9-6,5.9h-19.1c-0.8,0-1.6,0-2.4,0
				C365,767,364,767,363.1,767z"/>
			<g>
				<path d="M583.3,346.2c8.3,0,16.7,0.2,25.5,0.6c33.8,1.4,68.3,10.1,94.8,32.2c35.2,29.4,49.8,72.8,44.7,117.6
					c-2.9,25.3-5.4,26.8-10.7,53.5c-4.1,20.7-7.1,31.9-5.2,52.8c4.4,48.2-12.4,129.1-16.7,151.7c-0.4,2.3-0.9,4.7-2.4,6.5
					c-3.4,4.1-17.5,4.5-22.5,4.5c-5.3,0-10.5,0-15.8,0c-2.7,0-5-2.1-5.3-4.8l-0.9-26H533.7l0.6,25c-0.3,3.3-3.1,5.8-6.4,5.8l-41.2,0
					c-3.3,0-6.2-2.3-6.9-5.5c-2.3-9.4-6.3-25.3-6.3-25.3h-80.3l-1.3,26.3c0,2.5-2,4.5-4.5,4.5c-6.4,0-12.7,0-19.1,0
					c-1.6,0-3.4,0.1-5.2,0.1c-3.6,0-7.5-0.3-10.3-2.2c-4.4-2.9-7-9.2-9-13.8c-9.9-22.1-17.5-62.3-15.8-132.1
					c0.4-18.2,1.7-35.6,9-52.6c2.2-5.2,5-10.3,8.9-14.3c5.7-5.8,13.5-9,21.4-10.9c11.1-2.7,22.5-4.6,33.8-6.1
					c16.2-2.1,14.5-18.7,12.7-30.4c-3.4-22.1-2.8-45.2,2.8-66.9c4.3-16.9,11.2-33.6,23.2-46.5c12.9-13.9,31.7-25.1,49.1-30.7
					c15.8-5.1,32.7-7.9,49.1-10.1C553.6,346.9,568.3,346.2,583.3,346.2 M583.3,343.2c-16.6,0-31.1,0.9-45.8,2.9
					c-16.1,2.2-33.3,4.9-49.6,10.2c-18.8,6.1-37.7,17.9-50.3,31.5c-10.9,11.7-18.7,27.3-23.9,47.8c-5.4,21.2-6.4,44.8-2.8,68.1
					c1.3,8.7,2.1,17.5-1.7,22.6c-1.8,2.4-4.5,3.8-8.4,4.3c-13.7,1.8-24.6,3.8-34.1,6.1c-10,2.5-17.5,6.3-22.8,11.7
					c-4.7,4.8-7.6,10.7-9.6,15.3c-7.8,18-8.8,36.4-9.2,53.7c-1.5,61.5,3.9,106.4,16.1,133.4l0.4,0.9c2.2,4.9,4.9,11,9.7,14.2
					c3.6,2.3,8,2.6,11.9,2.6c1,0,1.9,0,2.8,0c0.8,0,1.6,0,2.4,0h19.1c4.1,0,7.4-3.3,7.5-7.4l1.2-23.4h75.1c1.2,4.7,4,15.8,5.7,23
					c1.1,4.6,5.2,7.8,9.9,7.8l41.2,0c4.9,0,8.9-3.7,9.4-8.5c0-0.1,0-0.2,0-0.4l-0.5-21.9h129.2l0.8,23.1c0,0.1,0,0.1,0,0.2
					c0.4,4.3,4,7.5,8.2,7.5h15.8c9.2,0,21.1-1,24.9-5.6c2-2.4,2.6-5.6,3-7.8c0.3-1.6,0.7-3.4,1.1-5.5c5.4-27.8,19.8-101.7,15.7-147
					c-1.7-18.3,0.5-28.7,4-46c0.4-1.9,0.8-3.9,1.2-5.9c2-10.2,3.6-16.6,5-22.2c2.3-9.1,3.9-15.8,5.7-31.6
					c5.4-47.6-11.2-91.4-45.8-120.2c-12.8-10.6-28.1-18.9-45.6-24.4c-15.4-4.9-32.5-7.7-50.9-8.5
					C599.1,343.3,590.9,343.2,583.3,343.2L583.3,343.2z"/>
			</g>
		</g>
		<ellipse cx="591.4" cy="473.4" rx="9.4" ry="4.3"/>
		<g>
			<g>
				<path d="M574.3,483.1c0.4,3.6,2.1,9.1,6.3,9.7c1.9,0.3,3.6-0.7,5.1-1.7c2.7-1.8,4.3-4.8,7.4-2.2c2.9,2.5,4.6,5.8,8.9,3.8
					c2.9-1.4,6.9-5.2,6.8-8.6c0-1.9-3-1.9-3,0c0,1.6-1.8,3.3-2.9,4.3c-2,1.8-3.3,2.6-5.5,0.8c-1.7-1.3-2.8-3.8-4.9-4.6
					c-2.1-0.7-3.6,0.4-5.2,1.6c-1.2,0.9-2.6,2.7-4.1,3c-4.4,1.1-5.5-3.1-5.9-6.1C577.1,481.2,574.1,481.2,574.3,483.1L574.3,483.1z"
					/>
			</g>
		</g>
		<g>
			<g>
				<path d="M441.5,457.4c-21.2-6.2-44-7.9-65.9-5c-1.9,0.3-1.9,3.3,0,3c21.6-2.9,44.2-1.2,65.1,4.9
					C442.6,460.8,443.4,458,441.5,457.4L441.5,457.4z"/>
			</g>
		</g>
		<g>
			<g>
				<path d="M441.2,469.9c-25.3-5.8-51.6-3.3-75.4,7c-1.8,0.8-0.2,3.3,1.5,2.6c23-9.9,48.6-12.3,73.1-6.7
					C442.3,473.2,443.1,470.3,441.2,469.9L441.2,469.9z"/>
			</g>
		</g>
		<g>
			<g>
				<path d="M436,482.1c-12.1-2.3-25.6,1-37.4,3.9c-11.3,2.7-22.1,7.1-30.4,15.5c-1.4,1.4,0.8,3.5,2.1,2.1
					c7.9-8,18.3-12.1,29.1-14.7c11.2-2.7,24.3-6.1,35.8-3.9C437.1,485.4,437.9,482.5,436,482.1L436,482.1z"/>
			</g>
		</g>
		<g>
			<g>
				<path d="M736.7,467.6c24.5-3.2,49.2-3.8,73.8-1.9c1.9,0.2,1.9-2.8,0-3c-24.6-2-49.3-1.3-73.8,1.9
					C734.8,464.8,734.8,467.8,736.7,467.6L736.7,467.6z"/>
			</g>
		</g>
		<g>
			<g>
				<path d="M734.8,482.8c23.1-2.8,47.1-1.6,65.7,14.1c1.5,1.2,3.6-0.9,2.1-2.1c-19.2-16.2-43.8-17.8-67.8-14.9
					C732.9,480.1,732.9,483.1,734.8,482.8L734.8,482.8z"/>
			</g>
		</g>
		<g>
			<g>
				<path d="M737.5,498.9c23.3,1.9,43.4,14.9,62.5,27.4c1.6,1.1,3.1-1.5,1.5-2.6c-19.6-12.9-40.1-25.8-64-27.8
					C735.6,495.7,735.6,498.7,737.5,498.9L737.5,498.9z"/>
			</g>
		</g>
		<path class="st15" d="M713.3,559.5c8.3,55.7-67.5,109.4-140.2,104.3c-72.7-5.1-124.9-66.8-122.1-123.1
			C451.5,526.7,573,559,713.3,559.5z"/>
		<circle class="st16" cx="579.5" cy="586.5" r="29.5"/>
		<g>
			<g>
				<path d="M551.9,592.9c16.3-2.6,39.4-3,52.5,8.6c1.4,1.3,3.6-0.8,2.1-2.1c-14.1-12.4-38-12.2-55.5-9.4
					C549.2,590.4,550,593.2,551.9,592.9L551.9,592.9z"/>
			</g>
		</g>
		<g>
			<g>
				<path d="M578,592.3c-1.1,7.2-0.8,14.7-3,21.8c-0.6,1.9,2.3,2.6,2.9,0.8c2.1-7.1,1.9-14.5,3-21.8
					C581.2,591.2,578.3,590.4,578,592.3L578,592.3z"/>
			</g>
		</g>
		<circle cx="662.5" cy="449.5" r="11.5"/>
		<circle cx="513.5" cy="446.5" r="11.5"/>
		<circle class="st17" cx="700.5" cy="478.5" r="24.5"/>
		<circle class="st17" cx="471.5" cy="466.5" r="24.5"/>
		<g>
			<g>
				<path d="M654.2,423.3c0,1.7,0,3.3,0,5c0,1.9,3,1.9,3,0c0-1.7,0-3.3,0-5C657.2,421.4,654.2,421.4,654.2,423.3L654.2,423.3z"/>
			</g>
		</g>
		<g>
			<g>
				<path d="M666.2,423.9c-0.4,1.7-0.8,3.3-1.3,5c-0.5,1.9,2.4,2.7,2.9,0.8c0.4-1.7,0.8-3.3,1.3-5
					C669.6,422.9,666.7,422.1,666.2,423.9L666.2,423.9z"/>
			</g>
		</g>
		<g>
			<g>
				<path d="M675.7,426.6c-0.7,1.4-1.3,2.9-2,4.3c-0.3,0.7-0.2,1.6,0.5,2.1c0.6,0.4,1.7,0.2,2.1-0.5c0.7-1.4,1.3-2.9,2-4.3
					c0.3-0.7,0.2-1.6-0.5-2.1C677.1,425.7,676.1,425.8,675.7,426.6L675.7,426.6z"/>
			</g>
		</g>
		<g>
			<g>
				<path d="M520,422.5c0,1.7,0,3.3,0,5c0,1.9,3,1.9,3,0c0-1.7,0-3.3,0-5C523,420.6,520,420.6,520,422.5L520,422.5z"/>
			</g>
		</g>
		<g>
			<g>
				<path d="M508.1,423.9c0.4,1.7,0.8,3.3,1.3,5c0.5,1.9,3.4,1.1,2.9-0.8c-0.4-1.7-0.8-3.3-1.3-5C510.5,421.2,507.6,422,508.1,423.9
					L508.1,423.9z"/>
			</g>
		</g>
		<g>
			<g>
				<path d="M498.9,427.3c0.7,1.4,1.3,2.9,2,4.3c0.3,0.7,1.4,0.9,2.1,0.5c0.8-0.4,0.9-1.3,0.5-2.1c-0.7-1.4-1.3-2.9-2-4.3
					c-0.3-0.7-1.4-0.9-2.1-0.5C498.6,425.7,498.5,426.5,498.9,427.3L498.9,427.3z"/>
			</g>
		</g>
		<g>
			<path class="st18" d="M608.8,346.7c-22.9-0.9-43.5-1-65.9,1.6c1.7,26.9,19.1,50,44.4,55.7c31.3,7.1,62.9-14.9,71.1-49.2
				C642.4,349.9,625.6,347.4,608.8,346.7z"/>
		</g>
		<g>
			<path d="M607.4,345c-18.8-0.8-35.6-0.8-54,1.3c1.4,22,15.6,40.9,36.4,45.6c25.6,5.8,51.5-12.2,58.2-40.3
				C634.9,347.6,621.1,345.5,607.4,345z"/>
		</g>
		<path class="st18" d="M776,765.9L776,765.9c-23.3,5.6-46.9-8.9-52.4-32.2l-14.7-61.5c-5.6-23.3,8.9-46.9,32.2-52.4l0,0
			c23.3-5.6,46.9,8.9,52.4,32.2l14.7,61.5C813.7,736.8,799.2,760.4,776,765.9z"/>
		<g>
			<g>
				<path class="st19" d="M723.9,663c16.4-5.5,33.1-9.5,50.2-12.2c1.9-0.3,1.1-3.2-0.8-2.9c-17.1,2.6-33.8,6.7-50.2,12.2
					C721.3,660.7,722.1,663.6,723.9,663L723.9,663z"/>
			</g>
		</g>
		<g>
			<g>
				<path class="st19" d="M727.9,678c16.4-5.5,33.1-9.5,50.2-12.2c1.9-0.3,1.1-3.2-0.8-2.9c-17.1,2.6-33.8,6.7-50.2,12.2
					C725.3,675.7,726.1,678.6,727.9,678L727.9,678z"/>
			</g>
		</g>
		<g>
			<g>
				<path class="st19" d="M731.9,693c16.4-5.5,33.1-9.5,50.2-12.2c1.9-0.3,1.1-3.2-0.8-2.9c-17.1,2.6-33.8,6.7-50.2,12.2
					C729.3,690.7,730.1,693.6,731.9,693L731.9,693z"/>
			</g>
		</g>
		<g>
			<g>
				<path class="st19" d="M735.9,708c16.4-5.5,33.1-9.5,50.2-12.2c1.9-0.3,1.1-3.2-0.8-2.9c-17.1,2.6-33.8,6.7-50.2,12.2
					C733.3,705.7,734.1,708.6,735.9,708L735.9,708z"/>
			</g>
		</g>
		<g>
			<g>
				<path class="st19" d="M739.9,723c16.4-5.5,33.1-9.5,50.2-12.2c1.9-0.3,1.1-3.2-0.8-2.9c-17.1,2.6-33.8,6.7-50.2,12.2
					C737.3,720.7,738.1,723.6,739.9,723L739.9,723z"/>
			</g>
		</g>
		<g>
			<g>
				<path class="st19" d="M743.9,738c16.4-5.5,33.1-9.5,50.2-12.2c1.9-0.3,1.1-3.2-0.8-2.9c-17.1,2.6-33.8,6.7-50.2,12.2
					C741.3,735.7,742.1,738.6,743.9,738L743.9,738z"/>
			</g>
		</g>
		<path class="st14" d="M414.7,510.5c0.5,6.6,0.2,13.4-3.6,18c105.5,34.9,273.2,37.6,323.2,37.6c0.9-4.9,2-10.1,3.2-16.1
			c0.4-2.2,0.9-4.3,1.3-6.2C630.9,555.9,451.5,518.6,414.7,510.5z"/>
	</g>
</g>
</svg>
