<svg id="圖層_2" data-name="圖層 2" xmlns="http://www.w3.org/2000/svg" xmlns:xlink="http://www.w3.org/1999/xlink" viewBox="0 0 1080 1080"><defs><clipPath id="clip-path"><circle cx="334.1" cy="511.32" r="555.53" fill="none"/></clipPath><clipPath id="clip-path-2"><circle cx="823.57" cy="532.11" r="276.37" fill="none"/></clipPath></defs><title>illustration02</title><g clip-path="url(#clip-path)"><path d="M215.84,816.2S190,971.33,197.79,1006.93,332,1020.28,332,1020.28L261.15,824.66Z" fill="#e0c7b3"/><path d="M355.25,61.47a106.21,106.21,0,0,0-33.62-16.81c-19.61-5.6-116.26,4.2-155.48,71.43S121.34,281.38,143.75,337.4,177.37,457.16,169,476.77s-60.23,136.62,49,195.45,114,11.32,114,11.32l37.25-98.22-38.75-145.2L232,249.16s5.6-75.64,5.6-78.44,53.23-36.42,53.23-36.42Z" fill="#21201c"/><path d="M346.85,55.87S425.29,67.07,453.3,159.52,468,320.59,468,351.41s17.86,130.26,57.08,175.09l-119.41,8.4-53.23-78.44-39.22-212.9L290.82,114.69l-8.4-53.23Z" fill="#21201c"/><path d="M254.4,375.22l22.41,67.23s25.21,56,22.41,75.64,5.6,33.62-22.41,56S232,694.58,232,694.58l-2.33,113L234.79,978s89.64,61.16,95.25,50,58.83-123.26,58.83-123.26L447.7,775.82l28-22.41,14-91.74,6.51-51.12s44.08-65.66,27.28-88.07-28.19-7.18-53.4-21.19-64.43-30.81-67.23-89.64,0-98,0-98H307.63Z" fill="#ffe4cc"/><path d="M402.88,411.64c-2.8-58.83,0-98,0-98H307.63L254.4,375.22l22.41,67.23s9.45,21,16.13,41.78c3.48.24,107.13-55.78,111.51-57.83A120.45,120.45,0,0,1,402.88,411.64Z" fill="#e0c7b3"/><path d="M220.79,148.31s-28,117.66-19.61,154.07,33.62,100.85,84,123.26,58.83,19.61,92.44-14,53.23-50.42,58.83-106.45S419.68,148.31,388.87,131.5,327.24,86.68,282.42,92.28,220.79,148.31,220.79,148.31Z" fill="#ffe4cc"/><path d="M307.63,109.09s-47.62,98-42,114.86H248.8S274,92.28,282.42,81.08s36.42,0,36.42,0Z" fill="#21201c"/><path d="M316,111.89S195.57,170.72,198.38,232.35L162,215.54l33.62-92.44L254.4,75.48Z" fill="#21201c"/><path d="M332.84,117.5S450.65,262,429.56,341s6.93,53.79,6.93,53.79L453.3,274.37l-16.81-89.64-42-78.44-56-14Z" fill="#21201c"/><path d="M341.59,215.34l3.22,11.25a1.22,1.22,0,0,0,1.68.8c6.31-2.82,34.4-14.78,50.13-11.28a65.94,65.94,0,0,1,9.73,2.73.64.64,0,0,0,.78-.95c-2.59-4-8.53-12.16-14.47-13.64-7.13-1.78-43.18,7.68-50.22,9.57A1.22,1.22,0,0,0,341.59,215.34Z" fill="#443c35"/><path d="M271.21,225.21c0,2.58,0,8.44,0,11.22a1.38,1.38,0,0,1-1.51,1.38c-8.15-.73-47-3.62-60.42,6.2a.81.81,0,0,1-1.19-1c3.66-7.2,16.92-23.11,61.84-19.15A1.4,1.4,0,0,1,271.21,225.21Z" fill="#443c35"/><path d="M318.38,347.87a40.89,40.89,0,0,1,6.71,2c.45.17.65-.55.2-.72a40.89,40.89,0,0,0-6.71-2c-.47-.09-.67.63-.2.72Z" fill="#5b451e"/><path d="M331.58,349.37a27.27,27.27,0,0,1,7.22-2.51c.47-.09.27-.82-.2-.72a28,28,0,0,0-7.4,2.58c-.43.22-.05.87.38.65Z" fill="#5b451e"/><path d="M331.4,381s-12.21-3.85-25,0S288,384.15,288,384.15s32.74,18.73,54.28,12.61S366.62,380,366.62,380s-13.24-1.25-18.84-1.23c-5.29,0-10.3,2.57-12.23,3A7,7,0,0,1,331.4,381Z" fill="#c1362f"/><path d="M359.45,383.17c-4.56.49-9,1.25-13.53,2.16-3.49.71-7.19,1.19-10.22,3.23-.24.16,0,.55.23.39,3-2,6.65-2.48,10.11-3.18,4.45-.9,8.89-1.66,13.41-2.14.28,0,.29-.48,0-.45Z" fill="#a83533"/><path d="M302.38,385.94c6.45-.07,12.83.37,19.26.91,4.16.35,9.82.32,13.53,2.43a.23.23,0,0,0,.23-.39c-3.17-1.8-7.79-1.94-11.39-2.3a198.11,198.11,0,0,0-21.62-1.11.23.23,0,0,0,0,.45Z" fill="#a83533"/><polygon points="447.63 628.41 419.2 743.33 447.63 761.08 459.16 628.28 447.63 628.41" fill="#e0c7b3"/><path d="M293.1,658.52s-20.55,32.36-21.36,43.79v6.24Z" fill="#e0c7b3"/><path d="M231.81,778.21s10.74,15.64,11.21,24,3.74,76.8,3.74,76.8l-17.09-78.44Z" fill="#e0c7b3"/><path d="M456.62,491.78l-65.21,83.89s-36,46.67-45.76,55.32S279,693.47,268.19,737.24s-22.45,129.6-22.45,129.6-13.89-89.85-9.2-142.69,21.09-124.23,21.09-124.23-68,83.76-70.75,110,2.51,50,15.47,72.64,25.54,70.09,21.86,78-12.56,34.07-18.6,60.07-16,136.62-8,190.86,186.8,32.64,186.8,32.64l152.31-12.54S522.94,1026.67,506,990.82s-53.37-177.57-53.37-177.57-2.25-36.61-8.27-42.84S396.09,677,399.68,634.8s14.68-81.35,21.26-88.35c5.62-6,43.36-50.59,43.36-50.59Z" fill="#aaa390"/><path d="M224.21,860.58S293.62,926,471.16,890l7.94,48.56s-96.35,18.33-149.67,9.92-120-42.83-120-42.83S216.79,871.81,224.21,860.58Z" fill="#b7b19f"/><path d="M475.53,527.51s20.15-32.49,50.83-5.42,20,161.13,4.34,212.13-57.28,329.16-57.28,329.16l-20.24,105.44-41-19.25,17.55-297.83L444,627.34Z" fill="#ffe4cc"/><path d="M342.17,567.95c2.3-5.17,4.77-10.56,9.24-14,3.74-2.9,8.46-4.15,13-5.32l31.44-8" fill="#e0c7b3"/><path d="M241.88,274.2c-7.21,1.61-17.42,8.75-33.89,20.13l-4.71,4.2,21.68,2,36.91-17.58,24.75,11.43s3.51-11.06-8.67-16.81C263.68,270.78,249.09,272.58,241.88,274.2Z" fill="#e56385" opacity="0.28"/><path d="M397.1,261.39c7.21,1.61,17.76,8.72,21.73,12.15l4.82,4.74-11.44.7-35.94-6.86-24.75,11.43s-2.57-10.74,8.64-18.21S389.89,259.77,397.1,261.39Z" fill="#e56385" opacity="0.28"/><path d="M274,131.5S187.17,238,226.39,389.23l-64.43-28,2.8-128.86L211,110.57Z" fill="#21201c"/><path d="M288,296.78c0-5.6-5.6-19.61-33.62-19.61-28.57,0-36.42,22.41-47.62,22.41H190l25.21,2.8,64.43-5.6S288,299.58,288,296.78Z" fill="#333"/><path d="M286.62,299.46c0,6.49-15.87,16.24-34.39,16.24-22.65,0-37-9.74-37-13,0-6.49,19.68-22.73,42.33-22.73S286.62,293,286.62,299.46Z" fill="#fcfcfc"/><path d="M286.62,298.19c0,5.1-9.89,15.51-21,15.4-13.6-.13-6.54-34.79,4.28-32C281.67,284.56,286.67,293.1,286.62,298.19Z" fill="#100100"/><path d="M350.15,288c-.87-5.45,2.33-19.94,29.17-24.21,27.37-4.36,38.36,16.25,49.1,14.54l5.4-.86-5.63,2.83-7.39,2-62.6,4.38S350.58,290.68,350.15,288Z" fill="#333"/><path d="M351.9,290.35c1,6.32,17.72,13.37,35.47,10.55,21.7-3.46,34-15.13,33.47-18.29-1-6.32-22.38-19.11-44.08-15.66S350.9,284,351.9,290.35Z" fill="#fcfcfc"/><path d="M401.12,296.78c14.36-2.63,12-12,11.67-14.2-.42-2.64-1.61-8.43-6.41-11.55-1.94-1.26-5.09-2.18-8.63-2.93a3.85,3.85,0,0,0-3.59,1.72c-2,2.65-2.16,8.71-1.62,13.66C393.22,289.61,395.94,297.73,401.12,296.78Z" fill="#100100"/><circle cx="377.14" cy="600.03" r="4.2" transform="translate(-280 334.63) rotate(-35.86)" fill="#e5eddc"/><circle cx="372.4" cy="612.88" r="4.17" transform="translate(-288.43 334.29) rotate(-35.86)" fill="#e5eddc"/><circle cx="367.65" cy="625.72" r="4.14" transform="translate(-296.85 333.95) rotate(-35.86)" fill="#e5eddc"/><circle cx="362.91" cy="638.57" r="4.11" transform="translate(-305.28 333.61) rotate(-35.86)" fill="#e5eddc"/><circle cx="358.17" cy="651.42" r="4.08" transform="translate(-313.7 333.26) rotate(-35.86)" fill="#e5eddc"/><circle cx="353.43" cy="664.27" r="4.04" transform="translate(-322.12 332.92) rotate(-35.86)" fill="#e5eddc"/><circle cx="348.69" cy="677.11" r="4.01" transform="translate(-330.55 332.58) rotate(-35.86)" fill="#e5eddc"/><circle cx="343.94" cy="689.96" r="3.98" transform="translate(-338.97 332.23) rotate(-35.86)" fill="#e5eddc"/><circle cx="340.41" cy="703.17" r="3.95" transform="translate(-347.38 332.67) rotate(-35.86)" fill="#e5eddc"/><circle cx="337.26" cy="716.5" r="3.92" transform="translate(-355.78 333.35) rotate(-35.86)" fill="#e5eddc"/><circle cx="334.1" cy="729.82" r="3.88" transform="translate(-364.19 334.02) rotate(-35.86)" fill="#e5eddc"/><circle cx="330.95" cy="743.15" r="3.85" transform="translate(-372.59 334.7) rotate(-35.86)" fill="#e5eddc"/><circle cx="328.77" cy="756.6" r="3.82" transform="translate(-380.89 335.97) rotate(-35.86)" fill="#e5eddc"/><circle cx="328.31" cy="770.29" r="3.79" transform="translate(-388.99 338.3) rotate(-35.86)" fill="#e5eddc"/><circle cx="327.85" cy="783.98" r="3.76" transform="translate(-397.1 340.62) rotate(-35.86)" fill="#e5eddc"/><circle cx="327.39" cy="797.66" r="3.73" transform="translate(-405.2 342.95) rotate(-35.86)" fill="#e5eddc"/><circle cx="326.93" cy="811.35" r="3.69" transform="translate(-413.3 345.27) rotate(-35.86)" fill="#e5eddc"/><circle cx="326.47" cy="825.04" r="3.66" transform="translate(-421.41 347.6) rotate(-35.86)" fill="#e5eddc"/><circle cx="326.4" cy="838.72" r="3.63" transform="translate(-429.44 350.15) rotate(-35.86)" fill="#e5eddc"/><circle cx="326.94" cy="852.41" r="3.6" transform="matrix(0.81, -0.59, 0.59, 0.81, -437.35, 353.06)" fill="#e5eddc"/><circle cx="327.48" cy="866.09" r="3.57" transform="translate(-445.26 355.97) rotate(-35.86)" fill="#e5eddc"/><circle cx="328.02" cy="879.77" r="3.54" transform="translate(-453.18 358.88) rotate(-35.86)" fill="#e5eddc"/><circle cx="328.56" cy="893.46" r="3.5" transform="translate(-461.09 361.79) rotate(-35.86)" fill="#e5eddc"/><circle cx="222.19" cy="876.55" r="2.51" transform="translate(-517.2 355.97) rotate(-40.63)" fill="#e5eddc"/><circle cx="234.53" cy="882.47" r="2.58" transform="translate(-511.06 355.36) rotate(-39.86)" fill="#e5eddc"/><circle cx="246.87" cy="888.39" r="2.64" transform="translate(-505.23 354.98) rotate(-39.12)" fill="#e5eddc"/><circle cx="259.21" cy="894.31" r="2.71" transform="translate(-499.68 354.81) rotate(-38.43)" fill="#e5eddc"/><circle cx="271.56" cy="900.23" r="2.77" transform="translate(-494.4 354.82) rotate(-37.76)" fill="#e5eddc"/><circle cx="284.79" cy="903.69" r="2.84" transform="translate(-487.71 355.05) rotate(-37.13)" fill="#e5eddc"/><circle cx="298.06" cy="907.05" r="2.9" transform="translate(-481.25 355.46) rotate(-36.52)" fill="#e5eddc"/><circle cx="311.33" cy="910.4" r="2.97" transform="translate(-475.08 356.03) rotate(-35.94)" fill="#e5eddc"/><circle cx="324.81" cy="912.54" r="3.03" transform="translate(-468.42 356.65) rotate(-35.38)" fill="#e5eddc"/><circle cx="338.43" cy="913.92" r="3.1" transform="translate(-461.58 357.35) rotate(-34.85)" fill="#e5eddc"/><circle cx="352.05" cy="915.3" r="3.17" transform="translate(-455.01 358.2) rotate(-34.35)" fill="#e5eddc"/><circle cx="365.67" cy="916.68" r="3.23" transform="translate(-448.7 359.17) rotate(-33.86)" fill="#e5eddc"/><circle cx="379.32" cy="917.03" r="3.3" transform="translate(-442.06 360.11) rotate(-33.39)" fill="#e5eddc"/><circle cx="393" cy="916.52" r="3.37" transform="translate(-435.2 361.05) rotate(-32.94)" fill="#e5eddc"/><circle cx="406.68" cy="916.02" r="3.44" transform="translate(-428.58 362.1) rotate(-32.51)" fill="#e5eddc"/><circle cx="420.36" cy="915.51" r="3.5" transform="translate(-422.18 363.26) rotate(-32.09)" fill="#e5eddc"/><circle cx="217.86" cy="895.13" r="2.56" transform="translate(-530.35 357.63) rotate(-40.63)" fill="#e5eddc"/><circle cx="230.39" cy="901.14" r="2.63" transform="translate(-531.24 367.24) rotate(-40.63)" fill="#e5eddc"/><circle cx="242.92" cy="907.15" r="2.69" transform="translate(-532.13 376.85) rotate(-40.63)" fill="#e5eddc"/><circle cx="255.45" cy="913.16" r="2.75" transform="translate(-533.03 386.45) rotate(-40.63)" fill="#e5eddc"/><circle cx="268" cy="919.12" r="2.81" transform="translate(-533.88 396.06) rotate(-40.63)" fill="#e5eddc"/><circle cx="281.48" cy="922.53" r="2.88" transform="translate(-532.85 405.66) rotate(-40.63)" fill="#e5eddc"/><circle cx="294.95" cy="925.94" r="2.94" transform="translate(-531.83 415.25) rotate(-40.63)" fill="#e5eddc"/><circle cx="308.43" cy="929.35" r="3" transform="matrix(0.76, -0.65, 0.65, 0.76, -530.8, 424.85)" fill="#e5eddc"/><circle cx="322.16" cy="931.29" r="3.06" transform="translate(-528.75 434.26) rotate(-40.63)" fill="#e5eddc"/><circle cx="335.99" cy="932.69" r="3.13" transform="translate(-526.33 443.6) rotate(-40.63)" fill="#e5eddc"/><circle cx="349.81" cy="934.09" r="3.19" transform="translate(-523.91 452.94) rotate(-40.63)" fill="#e5eddc"/><circle cx="363.64" cy="935.49" r="3.25" transform="translate(-521.49 462.28) rotate(-40.63)" fill="#e5eddc"/><circle cx="377.52" cy="935.82" r="3.32" transform="translate(-518.36 471.4) rotate(-40.63)" fill="#e5eddc"/><circle cx="391.42" cy="935.73" r="3.38" transform="translate(-514.95 480.43) rotate(-40.63)" fill="#e5eddc"/><circle cx="405.31" cy="935.64" r="3.44" transform="translate(-511.54 489.45) rotate(-40.63)" fill="#e5eddc"/><circle cx="419.21" cy="935.55" r="3.5" transform="translate(-508.13 498.48) rotate(-40.63)" fill="#e5eddc"/><circle cx="397.45" cy="578.79" r="3.3" transform="translate(-263.71 342.51) rotate(-35.86)" fill="#e5eddc"/><circle cx="393.85" cy="592.25" r="3.34" transform="matrix(0.81, -0.59, 0.59, 0.81, -272.28, 342.95)" fill="#e5eddc"/><circle cx="390.24" cy="605.71" r="3.38" transform="translate(-280.85 343.38) rotate(-35.86)" fill="#e5eddc"/><circle cx="386.63" cy="619.17" r="3.42" transform="translate(-289.41 343.82) rotate(-35.86)" fill="#e5eddc"/><circle cx="383.02" cy="632.63" r="3.46" transform="translate(-297.98 344.26) rotate(-35.86)" fill="#e5eddc"/><circle cx="379.42" cy="646.09" r="3.49" transform="translate(-306.55 344.7) rotate(-35.86)" fill="#e5eddc"/><circle cx="375.81" cy="659.55" r="3.53" transform="translate(-315.12 345.14) rotate(-35.86)" fill="#e5eddc"/><circle cx="372.2" cy="673.01" r="3.57" transform="matrix(0.81, -0.59, 0.59, 0.81, -323.69, 345.58)" fill="#e5eddc"/><circle cx="368.6" cy="686.47" r="3.61" transform="translate(-332.26 346.01) rotate(-35.86)" fill="#e5eddc"/><circle cx="365.68" cy="700.08" r="3.65" transform="translate(-340.78 346.89) rotate(-35.86)" fill="#e5eddc"/><circle cx="363.36" cy="713.82" r="3.69" transform="matrix(0.81, -0.59, 0.59, 0.81, -349.27, 348.13)" fill="#e5eddc"/><circle cx="361.04" cy="727.56" r="3.73" transform="translate(-357.76 349.38) rotate(-35.86)" fill="#e5eddc"/><circle cx="358.72" cy="741.31" r="3.77" transform="translate(-366.25 350.62) rotate(-35.86)" fill="#e5eddc"/><circle cx="356.4" cy="755.05" r="3.81" transform="translate(-374.74 351.87) rotate(-35.86)" fill="#e5eddc"/><circle cx="355.13" cy="768.92" r="3.85" transform="translate(-383.11 353.75) rotate(-35.86)" fill="#e5eddc"/><circle cx="353.87" cy="782.8" r="3.89" transform="translate(-391.48 355.64) rotate(-35.86)" fill="#e5eddc"/><circle cx="352.61" cy="796.68" r="3.93" transform="translate(-399.84 357.53) rotate(-35.86)" fill="#e5eddc"/><circle cx="351.35" cy="810.56" r="3.97" transform="matrix(0.81, -0.59, 0.59, 0.81, -408.21, 359.43)" fill="#e5eddc"/><circle cx="350.09" cy="824.44" r="4.01" transform="translate(-416.58 361.32) rotate(-35.86)" fill="#e5eddc"/><circle cx="348.64" cy="838.29" r="4.04" transform="translate(-424.97 363.1) rotate(-35.86)" fill="#e5eddc"/><circle cx="346.64" cy="852.08" r="4.08" transform="translate(-433.43 364.54) rotate(-35.86)" fill="#e5eddc"/><circle cx="344.63" cy="865.87" r="4.12" transform="translate(-441.89 365.98) rotate(-35.86)" fill="#e5eddc"/><circle cx="342.63" cy="879.67" r="4.16" transform="translate(-450.34 367.42) rotate(-35.86)" fill="#e5eddc"/><circle cx="340.62" cy="893.46" r="4.2" transform="translate(-458.8 368.86) rotate(-35.86)" fill="#e5eddc"/><circle cx="419.33" cy="726.79" r="3.07" transform="translate(-350.77 393.6) rotate(-36.62)" fill="#e5eddc"/><circle cx="417.31" cy="740.79" r="3.16" transform="translate(-359.52 395.16) rotate(-36.62)" fill="#e5eddc"/><circle cx="415.29" cy="754.8" r="3.25" transform="translate(-368.27 396.72) rotate(-36.62)" fill="#e5eddc"/><circle cx="412.75" cy="768.7" r="3.33" transform="translate(-377.06 397.95) rotate(-36.62)" fill="#e5eddc"/><circle cx="409.42" cy="782.45" r="3.42" transform="translate(-385.92 398.68) rotate(-36.62)" fill="#e5eddc"/><circle cx="406.09" cy="796.2" r="3.51" transform="translate(-394.78 399.41) rotate(-36.62)" fill="#e5eddc"/><circle cx="402.48" cy="809.87" r="3.59" transform="translate(-403.65 399.95) rotate(-36.62)" fill="#e5eddc"/><circle cx="398.24" cy="823.37" r="3.68" transform="translate(-412.54 400.09) rotate(-36.62)" fill="#e5eddc"/><circle cx="394.01" cy="836.87" r="3.77" transform="translate(-421.43 400.23) rotate(-36.62)" fill="#e5eddc"/><circle cx="389.77" cy="850.37" r="3.86" transform="translate(-430.31 400.36) rotate(-36.62)" fill="#e5eddc"/><circle cx="382.78" cy="862.39" r="3.94" transform="translate(-438.86 398.57) rotate(-36.62)" fill="#e5eddc"/><circle cx="373.88" cy="873.38" r="4.03" transform="translate(-447.18 395.43) rotate(-36.62)" fill="#e5eddc"/><circle cx="364.98" cy="884.38" r="4.12" transform="translate(-455.5 392.29) rotate(-36.62)" fill="#e5eddc"/><circle cx="356.07" cy="895.37" r="4.2" transform="translate(-463.81 389.15) rotate(-36.62)" fill="#e5eddc"/><circle cx="396.63" cy="676.1" r="4.04" transform="translate(-325.01 370.05) rotate(-36.62)" fill="#e5eddc"/><circle cx="393.92" cy="689.46" r="4" transform="translate(-333.51 371.08) rotate(-36.62)" fill="#e5eddc"/><circle cx="391.22" cy="702.82" r="3.95" transform="translate(-342.02 372.1) rotate(-36.62)" fill="#e5eddc"/><circle cx="388.7" cy="716.23" r="3.9" transform="translate(-350.51 373.24) rotate(-36.62)" fill="#e5eddc"/><circle cx="386.21" cy="729.63" r="3.86" transform="translate(-359 374.4) rotate(-36.62)" fill="#e5eddc"/><circle cx="383.79" cy="743.05" r="3.81" transform="translate(-367.48 375.61) rotate(-36.62)" fill="#e5eddc"/><circle cx="381.38" cy="756.48" r="3.76" transform="translate(-375.97 376.82) rotate(-36.62)" fill="#e5eddc"/><circle cx="378.66" cy="769.83" r="3.71" transform="translate(-384.47 377.84) rotate(-36.62)" fill="#e5eddc"/><circle cx="375.65" cy="783.13" r="3.67" transform="translate(-393 378.67) rotate(-36.62)" fill="#e5eddc"/><circle cx="372.63" cy="796.43" r="3.62" transform="translate(-401.53 379.49) rotate(-36.62)" fill="#e5eddc"/><circle cx="369.59" cy="809.73" r="3.57" transform="translate(-410.06 380.31) rotate(-36.62)" fill="#e5eddc"/><circle cx="366.89" cy="823.09" r="3.53" transform="translate(-418.56 381.33) rotate(-36.62)" fill="#e5eddc"/><circle cx="364.19" cy="836.46" r="3.48" transform="translate(-427.07 382.36) rotate(-36.62)" fill="#e5eddc"/><circle cx="361.48" cy="849.82" r="3.43" transform="translate(-435.57 383.38) rotate(-36.62)" fill="#e5eddc"/><circle cx="358.78" cy="863.18" r="3.39" transform="translate(-444.08 384.41) rotate(-36.62)" fill="#e5eddc"/><circle cx="356.07" cy="876.55" r="3.34" transform="translate(-452.58 385.43) rotate(-36.62)" fill="#e5eddc"/><circle cx="430.74" cy="752.43" r="3.35" transform="translate(-363.81 405.47) rotate(-36.62)" fill="#e5eddc"/><circle cx="428.72" cy="766.46" r="3.36" transform="translate(-372.58 407.03) rotate(-36.62)" fill="#e5eddc"/><circle cx="426.69" cy="780.49" r="3.37" transform="translate(-381.35 408.6) rotate(-36.62)" fill="#e5eddc"/><circle cx="423.69" cy="794.29" r="3.39" transform="translate(-390.17 409.53) rotate(-36.62)" fill="#e5eddc"/><circle cx="419.24" cy="807.75" r="3.4" transform="translate(-399.08 409.53) rotate(-36.62)" fill="#e5eddc"/><circle cx="414.79" cy="821.21" r="3.41" transform="translate(-407.98 409.53) rotate(-36.62)" fill="#e5eddc"/><circle cx="409.89" cy="834.48" r="3.42" transform="translate(-416.87 409.23) rotate(-36.62)" fill="#e5eddc"/><circle cx="403.67" cy="847.22" r="3.44" transform="translate(-425.69 408.03) rotate(-36.62)" fill="#e5eddc"/><circle cx="397.45" cy="859.95" r="3.45" transform="translate(-434.52 406.84) rotate(-36.62)" fill="#e5eddc"/><circle cx="389.87" cy="871.88" r="3.46" transform="matrix(0.8, -0.6, 0.6, 0.8, -443.13, 404.67)" fill="#e5eddc"/><circle cx="381.59" cy="883.38" r="3.47" transform="translate(-451.62 402) rotate(-36.62)" fill="#e5eddc"/><circle cx="373.3" cy="894.88" r="3.49" transform="translate(-460.12 399.32) rotate(-36.62)" fill="#e5eddc"/><circle cx="426.69" cy="831.49" r="4.2" transform="translate(-411.77 418.66) rotate(-36.62)" fill="#e5eddc"/><circle cx="422.98" cy="845.81" r="3.92" transform="translate(-421.04 419.28) rotate(-36.62)" fill="#e5eddc"/><circle cx="419.28" cy="860.13" r="3.64" transform="translate(-430.31 419.89) rotate(-36.62)" fill="#e5eddc"/><circle cx="414.57" cy="873.91" r="3.35" transform="translate(-439.46 419.8) rotate(-36.62)" fill="#e5eddc"/><circle cx="404.7" cy="884.92" r="3.07" transform="translate(-447.98 416.09) rotate(-36.62)" fill="#e5eddc"/><circle cx="394.82" cy="895.92" r="2.79" transform="translate(-456.49 412.37) rotate(-36.62)" fill="#e5eddc"/><circle cx="409.4" cy="711.86" r="4.2" transform="translate(-343.82 384.73) rotate(-36.62)" fill="#e5eddc"/><circle cx="406.81" cy="725.91" r="4.2" transform="translate(-352.71 385.96) rotate(-36.62)" fill="#e5eddc"/><circle cx="404.21" cy="739.96" r="4.2" transform="translate(-361.6 387.18) rotate(-36.62)" fill="#e5eddc"/><circle cx="401.61" cy="754" r="4.2" transform="translate(-370.5 388.41) rotate(-36.62)" fill="#e5eddc"/><circle cx="399.02" cy="768.05" r="4.2" transform="translate(-379.39 389.63) rotate(-36.62)" fill="#e5eddc"/><circle cx="394.76" cy="781.67" r="4.2" transform="translate(-388.35 389.78) rotate(-36.62)" fill="#e5eddc"/><circle cx="390.33" cy="795.26" r="4.2" transform="translate(-397.33 389.82) rotate(-36.62)" fill="#e5eddc"/><circle cx="385.91" cy="808.84" r="4.2" transform="translate(-406.3 389.86) rotate(-36.62)" fill="#e5eddc"/><circle cx="381.49" cy="822.42" r="4.2" transform="translate(-415.28 389.91) rotate(-36.62)" fill="#e5eddc"/><circle cx="377.07" cy="836" r="4.2" transform="translate(-424.26 389.95) rotate(-36.62)" fill="#e5eddc"/><circle cx="372.64" cy="849.59" r="4.2" transform="translate(-433.23 389.99) rotate(-36.62)" fill="#e5eddc"/><circle cx="274.73" cy="737.13" r="3.58" transform="translate(-385.48 309.39) rotate(-36.62)" fill="#e5eddc"/><circle cx="273.4" cy="751.55" r="3.64" transform="translate(-394.34 311.44) rotate(-36.62)" fill="#e5eddc"/><circle cx="272.07" cy="765.97" r="3.7" transform="translate(-403.2 313.5) rotate(-36.62)" fill="#e5eddc"/><circle cx="270.75" cy="780.39" r="3.76" transform="translate(-412.07 315.55) rotate(-36.62)" fill="#e5eddc"/><circle cx="269.43" cy="794.81" r="3.83" transform="translate(-420.93 317.61) rotate(-36.62)" fill="#e5eddc"/><circle cx="270.19" cy="809.27" r="3.89" transform="translate(-429.4 320.92) rotate(-36.62)" fill="#e5eddc"/><circle cx="270.96" cy="823.73" r="3.95" transform="translate(-437.88 324.23) rotate(-36.62)" fill="#e5eddc"/><circle cx="271.72" cy="838.19" r="4.01" transform="translate(-446.35 327.54) rotate(-36.62)" fill="#e5eddc"/><circle cx="272.48" cy="852.65" r="4.08" transform="translate(-454.83 330.85) rotate(-36.62)" fill="#e5eddc"/><circle cx="273.25" cy="867.11" r="4.14" transform="translate(-463.3 334.16) rotate(-36.62)" fill="#e5eddc"/><circle cx="274.01" cy="881.57" r="4.2" transform="translate(-471.78 337.47) rotate(-36.62)" fill="#e5eddc"/><circle cx="258.64" cy="812.7" r="3.2" transform="translate(-433.73 314.71) rotate(-36.62)" fill="#e5eddc"/><circle cx="258.59" cy="828.25" r="3.45" transform="translate(-443.02 317.75) rotate(-36.62)" fill="#e5eddc"/><circle cx="258.55" cy="843.81" r="3.7" transform="translate(-452.31 320.79) rotate(-36.62)" fill="#e5eddc"/><circle cx="258.51" cy="859.36" r="3.95" transform="translate(-461.59 323.84) rotate(-36.62)" fill="#e5eddc"/><circle cx="258.46" cy="874.91" r="4.2" transform="translate(-470.88 326.88) rotate(-36.62)" fill="#e5eddc"/><circle cx="244.13" cy="628.28" r="4.2" transform="translate(-326.59 269.65) rotate(-36.62)" fill="#e5eddc"/><circle cx="236.49" cy="640.16" r="4.15" transform="translate(-335.18 267.43) rotate(-36.62)" fill="#e5eddc"/><circle cx="228.84" cy="652.03" r="4.09" transform="translate(-343.77 265.22) rotate(-36.62)" fill="#e5eddc"/><circle cx="221.2" cy="663.91" r="4.03" transform="translate(-352.37 263) rotate(-36.62)" fill="#e5eddc"/><circle cx="213.56" cy="675.79" r="3.98" transform="translate(-360.96 260.79) rotate(-36.62)" fill="#e5eddc"/><circle cx="205.91" cy="687.67" r="3.92" transform="translate(-369.56 258.57) rotate(-36.62)" fill="#e5eddc"/><circle cx="198.27" cy="699.55" r="3.87" transform="translate(-378.15 256.36) rotate(-36.62)" fill="#e5eddc"/><circle cx="194.78" cy="712.53" r="3.81" transform="translate(-386.58 256.84) rotate(-36.62)" fill="#e5eddc"/><circle cx="195.54" cy="726.64" r="3.76" transform="matrix(0.8, -0.6, 0.6, 0.8, -394.85, 260.08)" fill="#e5eddc"/><circle cx="196.3" cy="740.74" r="3.7" transform="translate(-403.11 263.31) rotate(-36.62)" fill="#e5eddc"/><circle cx="199.58" cy="754.32" r="3.64" transform="translate(-410.57 267.96) rotate(-36.62)" fill="#e5eddc"/><circle cx="204.47" cy="767.58" r="3.59" transform="translate(-417.51 273.49) rotate(-36.62)" fill="#e5eddc"/><circle cx="209.37" cy="780.83" r="3.53" transform="translate(-424.45 279.02) rotate(-36.62)" fill="#e5eddc"/><circle cx="214.26" cy="794.08" r="3.48" transform="matrix(0.8, -0.6, 0.6, 0.8, -431.39, 284.56)" fill="#e5eddc"/><circle cx="219.15" cy="807.33" r="3.42" transform="translate(-438.33 290.09) rotate(-36.62)" fill="#e5eddc"/><circle cx="230.86" cy="794.16" r="4.2" transform="translate(-428.16 294.48) rotate(-36.62)" fill="#e5eddc"/><circle cx="230.81" cy="809.72" r="4.02" transform="translate(-437.45 297.52) rotate(-36.62)" fill="#e5eddc"/><circle cx="230.77" cy="825.27" r="3.83" transform="translate(-446.73 300.56) rotate(-36.62)" fill="#e5eddc"/><circle cx="230.72" cy="840.82" r="3.65" transform="translate(-456.02 303.61) rotate(-36.62)" fill="#e5eddc"/><circle cx="230.68" cy="856.38" r="3.46" transform="matrix(0.8, -0.6, 0.6, 0.8, -465.3, 306.65)" fill="#e5eddc"/><circle cx="219.27" cy="683.54" r="4.2" transform="translate(-364.46 265.73) rotate(-36.62)" fill="#e5eddc"/><circle cx="216.31" cy="697.88" r="4.09" transform="translate(-373.59 266.79) rotate(-36.62)" fill="#e5eddc"/><circle cx="213.36" cy="712.21" r="3.97" transform="translate(-382.73 267.86) rotate(-36.62)" fill="#e5eddc"/><circle cx="210.4" cy="726.55" r="3.86" transform="translate(-391.86 268.92) rotate(-36.62)" fill="#e5eddc"/><circle cx="211.15" cy="740.92" r="3.74" transform="translate(-400.29 272.21) rotate(-36.62)" fill="#e5eddc"/><circle cx="213.82" cy="755.31" r="3.63" transform="translate(-408.35 276.64) rotate(-36.62)" fill="#e5eddc"/><circle cx="216.48" cy="769.7" r="3.51" transform="translate(-416.41 281.07) rotate(-36.62)" fill="#e5eddc"/><circle cx="219.15" cy="784.1" r="3.4" transform="translate(-424.47 285.5) rotate(-36.62)" fill="#e5eddc"/><circle cx="236.19" cy="661.99" r="4.2" transform="translate(-348.26 271.57) rotate(-36.62)" fill="#e5eddc"/><circle cx="234.05" cy="675.12" r="4.2" transform="translate(-356.52 272.88) rotate(-36.62)" fill="#e5eddc"/><circle cx="231.9" cy="688.26" r="4.2" transform="translate(-364.78 274.19) rotate(-36.62)" fill="#e5eddc"/><circle cx="229.75" cy="701.39" r="4.2" transform="translate(-373.03 275.5) rotate(-36.62)" fill="#e5eddc"/><circle cx="227.6" cy="714.52" r="4.2" transform="translate(-381.29 276.81) rotate(-36.62)" fill="#e5eddc"/><circle cx="225.46" cy="727.65" r="4.2" transform="matrix(0.8, -0.6, 0.6, 0.8, -389.55, 278.12)" fill="#e5eddc"/><circle cx="225.31" cy="740.88" r="4.2" transform="translate(-397.47 280.65) rotate(-36.62)" fill="#e5eddc"/><circle cx="226.14" cy="754.16" r="4.2" transform="translate(-405.23 283.76) rotate(-36.62)" fill="#e5eddc"/><circle cx="226.96" cy="767.44" r="4.2" transform="translate(-412.99 286.88) rotate(-36.62)" fill="#e5eddc"/><circle cx="227.79" cy="780.72" r="4.2" transform="translate(-420.75 289.99) rotate(-36.62)" fill="#e5eddc"/><circle cx="350.36" cy="631.98" r="4.2" transform="translate(-303.79 325) rotate(-35.86)" fill="#e5eddc"/><circle cx="344.39" cy="644.79" r="4.17" transform="translate(-312.43 323.94) rotate(-35.86)" fill="#e5eddc"/><circle cx="338.43" cy="657.6" r="4.14" transform="translate(-321.06 322.87) rotate(-35.86)" fill="#e5eddc"/><circle cx="332.46" cy="670.4" r="4.11" transform="translate(-329.69 321.8) rotate(-35.86)" fill="#e5eddc"/><circle cx="326.49" cy="683.21" r="4.08" transform="translate(-338.33 320.73) rotate(-35.86)" fill="#e5eddc"/><circle cx="321.46" cy="696.36" r="4.05" transform="translate(-346.98 320.27) rotate(-35.86)" fill="#e5eddc"/><circle cx="317.92" cy="710.04" r="4.02" transform="translate(-355.66 320.8) rotate(-35.86)" fill="#e5eddc"/><circle cx="314.39" cy="723.72" r="3.99" transform="translate(-364.35 321.32) rotate(-35.86)" fill="#e5eddc"/><circle cx="310.85" cy="737.4" r="3.96" transform="translate(-373.03 321.84) rotate(-35.86)" fill="#e5eddc"/><circle cx="307.32" cy="751.08" r="3.93" transform="translate(-381.72 322.36) rotate(-35.86)" fill="#e5eddc"/><circle cx="305.46" cy="764.93" r="3.9" transform="translate(-390.18 323.9) rotate(-35.86)" fill="#e5eddc"/><circle cx="306.17" cy="779.04" r="3.87" transform="translate(-398.31 326.99) rotate(-35.86)" fill="#e5eddc"/><circle cx="306.89" cy="793.16" r="3.84" transform="translate(-406.44 330.09) rotate(-35.86)" fill="#e5eddc"/><circle cx="307.6" cy="807.27" r="3.81" transform="translate(-414.58 333.18) rotate(-35.86)" fill="#e5eddc"/><circle cx="308.31" cy="821.38" r="3.78" transform="translate(-422.71 336.27) rotate(-35.86)" fill="#e5eddc"/><circle cx="309.51" cy="835.45" r="3.74" transform="translate(-430.72 339.64) rotate(-35.86)" fill="#e5eddc"/><circle cx="311.23" cy="849.48" r="3.71" transform="translate(-438.61 343.3) rotate(-35.86)" fill="#e5eddc"/><circle cx="312.95" cy="863.5" r="3.68" transform="translate(-446.5 346.97) rotate(-35.86)" fill="#e5eddc"/><circle cx="314.67" cy="877.53" r="3.65" transform="translate(-454.39 350.63) rotate(-35.86)" fill="#e5eddc"/><circle cx="316.38" cy="891.55" r="3.62" transform="translate(-462.28 354.3) rotate(-35.86)" fill="#e5eddc"/><circle cx="320.49" cy="664.14" r="4.2" transform="translate(-328.29 313.6) rotate(-35.86)" fill="#e5eddc"/><circle cx="314.26" cy="676.23" r="4.15" transform="translate(-336.55 312.24) rotate(-35.86)" fill="#e5eddc"/><circle cx="308.03" cy="688.32" r="4.09" transform="matrix(0.81, -0.59, 0.59, 0.81, -344.82, 310.89)" fill="#e5eddc"/><circle cx="302.04" cy="700.5" r="4.04" transform="translate(-353.09 309.68) rotate(-35.86)" fill="#e5eddc"/><circle cx="297.74" cy="713.4" r="3.99" transform="translate(-361.46 309.61) rotate(-35.86)" fill="#e5eddc"/><circle cx="293.44" cy="726.3" r="3.93" transform="translate(-369.83 309.54) rotate(-35.86)" fill="#e5eddc"/><circle cx="289.14" cy="739.2" r="3.88" transform="translate(-378.2 309.46) rotate(-35.86)" fill="#e5eddc"/><circle cx="284.84" cy="752.1" r="3.83" transform="translate(-386.57 309.39) rotate(-35.86)" fill="#e5eddc"/><circle cx="284.34" cy="765.52" r="3.77" transform="translate(-394.53 311.64) rotate(-35.86)" fill="#e5eddc"/><circle cx="285.03" cy="779.1" r="3.72" transform="translate(-402.35 314.62) rotate(-35.86)" fill="#e5eddc"/><circle cx="285.71" cy="792.68" r="3.67" transform="translate(-410.18 317.59) rotate(-35.86)" fill="#e5eddc"/><circle cx="286.4" cy="806.26" r="3.61" transform="translate(-418 320.57) rotate(-35.86)" fill="#e5eddc"/><circle cx="287.09" cy="819.84" r="3.56" transform="translate(-425.83 323.54) rotate(-35.86)" fill="#e5eddc"/><circle cx="288.41" cy="833.36" r="3.5" transform="translate(-433.5 326.88) rotate(-35.86)" fill="#e5eddc"/><circle cx="290.07" cy="846.86" r="3.45" transform="translate(-441.09 330.41) rotate(-35.86)" fill="#e5eddc"/><circle cx="291.72" cy="860.36" r="3.4" transform="translate(-448.68 333.94) rotate(-35.86)" fill="#e5eddc"/><circle cx="293.37" cy="873.85" r="3.34" transform="translate(-456.28 337.46) rotate(-35.86)" fill="#e5eddc"/><circle cx="295.02" cy="887.35" r="3.29" transform="translate(-463.87 340.99) rotate(-35.86)" fill="#e5eddc"/><path d="M266.3,571.41s-13.09,35.59-.05,48.24l-29.69-18.06Z" fill="#21201c"/><path d="M256.07,641.26s-19.51-39.67,7.46-61c0,0-46.82,4.42-45.54,16.94S256.07,641.26,256.07,641.26Z" fill="#21201c"/><path d="M215.18,636.36s6.07,33.42,18.21,42.29c0,0-11,1.58-29.76-16.46S215.18,636.36,215.18,636.36Z" fill="#21201c"/><path d="M232,636.32s-24.17,33.37-18.54,50.19c0,0-14-26.08-2.3-42.18S232,636.32,232,636.32Z" fill="#21201c"/><path d="M248.94,607.9s-24.17,33.37-18.54,50.19c0,0-14-26.08-2.3-42.18S248.94,607.9,248.94,607.9Z" fill="#21201c"/><path d="M413.15,407.79s-25.36,56.38-5.91,66.53,49.21,4.55,49.21,4.55l-4.9-10.15s-38.52,6.65-41.67-4.55,9.32-38.87,9.32-38.87Z" fill="#21201c"/><path d="M459.16,481.67s19.36,29.76,6.75,38.17c0,0,15.06-4.2,9.1-23.11S459.16,481.67,459.16,481.67Z" fill="#21201c"/><path d="M369.26,103.49S324.1,215.54,358.84,240.76l-76.42-14s3.47-140.07,45.16-145.67Z" fill="#21201c"/><path d="M288,426.88s4.2,2.09,12.44,5.25c17.09,25.48,36.24,98.16,4.44,118.4-41.09,26.15-38.6,29.75-38.6,29.75L250,516.69l-30.68-87.78,24.86-18.68,19.39,2.19A133.25,133.25,0,0,0,288,426.88Z" fill="#21201c"/></g><g clip-path="url(#clip-path-2)"><polygon points="730.43 480.01 797.69 491.89 833.58 585.21 811.91 609.33 791.23 590.49 749.26 552.26 730.43 480.01"/><path d="M815.44,558.25s-4.66,3.46-2.38,4.14S815,577.73,815,577.73l-8.24,21-47.83,6.65-14,51.77s3.77,38.67,23.68,59.45S778,762,778,762l-11,69.81-1.81,32.55h138.2S890,732.18,895.54,714.53c3.43-11,8.93-37.72,12.94-62.06,2.42-14.66,6.87-28.87,2.75-37.13-11-22-52.55-22.65-52.55-22.65v-51.1Z" fill="#ffe4cc"/><ellipse cx="828.54" cy="458.94" rx="103.73" ry="105.99" fill="#ffe4cc"/><path d="M858.68,343.92s-43.73,71.38-35.79,83.14l-35.62-1.37s-10.17-49.76,16.5-73.61S858.68,343.92,858.68,343.92Z"/><path d="M829.65,318.22s21.76-12.62,50.39,3.15c15.57,8.58,29.55,23.53,40.5,37.35,10,12.69,19.32,31.34,22.76,47.43,3.88,18.16,6.6,38.28,4.69,56.49-2.44,23.24-7.91,44.21-20.69,64.62-6.75,10.77-6.07,20-10.18,32.13-4,11.88-6.07,25-2.91,37.33l.15.55c4.31,14.9-2.68,40-2.68,40l-49.87-14.14L847.3,612.06l4.31-49.23s43.53-12,53.34-49.55c0,0,1.57-20.34-2.75-31.32S871.62,363.14,843,358.43,829.65,318.22,829.65,318.22Z"/><path d="M843.06,351.37s-2,68.66,3.6,74.32H857s-6.08-62.52-1.57-71.95S843.06,351.37,843.06,351.37Z"/><path d="M844.66,436.58l2.5,5.92a2.14,2.14,0,0,0,2.82,1.14c4.86-2.1,18.82-6.58,41.59-1.7l9.36,2a1,1,0,0,0,.92-1.65c-4.56-4.75-15.44-13.12-27.33-13.35-10.63-.2-21.88.58-27.48,2.41A3.89,3.89,0,0,0,844.66,436.58Z"/><path d="M795.36,440.69l-2.12,6.06a2.14,2.14,0,0,1-2.74,1.31c-5-1.79-19.19-5.39-41.62.91l-9.21,2.59a1,1,0,0,1-1-1.59c4.25-5,14.59-14.06,26.44-15,10.6-.87,21.87-.79,27.58.69A3.89,3.89,0,0,1,795.36,440.69Z" fill="#050505"/><ellipse cx="872.35" cy="469.11" rx="12.65" ry="10.15" fill="#050505"/><polygon points="880.04 464.83 898.41 462.64 881.66 469.9 880.04 464.83" fill="#050505"/><ellipse cx="772.69" cy="471.95" rx="12.65" ry="10.15" fill="#050505"/><polygon points="765.18 466.75 746.69 466.27 764.04 471.95 765.18 466.75" fill="#050505"/><circle cx="822.02" cy="490.4" r="5.1" fill="#f9b678"/><path d="M800.83,516.54c14.79,10.29,41.79,10.63,51.86-6.4,1.56-2.63-2.54-5-4.09-2.39-8.73,14.75-32.87,13.41-45.38,4.7-2.51-1.75-4.88,2.36-2.39,4.09Z" fill="#f96464"/><path d="M856.45,561.2s-8,45.4,4.09,45.88,34.41-2.54,39.12,0,12.07,2.43,13.37,13.23-2.78,22-2.78,22l-43.78,1.47-35.05-13.82,9.12-38.24,2.27-26.15Z" fill="#ffe4cc"/><path d="M742.79,516.68c1.57-4.67,5-11.37,10-13.26,3.85-1.47,3.44,1.9,3.91,5.23.38,2.62,0,5.54.07,8.17a2.39,2.39,0,0,0,3.57,2c3.66-2,12.75-8.09,15.15-2.77,1.25,2.78,5.33.37,4.09-2.39-1.44-3.2-1.55-5.33-5.61-5.08-5.31.33-11.43,3.67-16,6.16l3.57,2c0-4.73,2.42-20.74-6.16-19.8-8.24.9-14.8,11.52-17.12,18.41-1,2.9,3.6,4.14,4.57,1.26Z" fill="#fc9f9f"/><path d="M881.79,513.23c-3.52-14.19,5.09,1.48,9.49,2.18s6.41-5.07,8.66-7.61c1.46-1.65-.33-1.91.57-1,.27.28,1.11,2.83,1.23,3a5.85,5.85,0,0,0,3,2.11c5.28,1.33,10.84-6.54,14.68-8.72,2.65-1.51.27-5.6-2.39-4.09-2.46,1.4-4.91,4.13-7.35,5.29-3.81,1.81-4.28,0-6-2.73a2.37,2.37,0,0,0-2-1.17c-4.74.3-4.33,6.27-8,7.94-4.9,2.24-8.57-8.21-14.14-7.85a2.37,2.37,0,0,0-2,1.17c-1.89,4.12-1.35,8.44-.28,12.76.73,3,5.3,1.71,4.57-1.26Z" fill="#fc9f9f"/><path d="M785.37,594.13s-12.93,42.32-12.68,61.38c.29,21.23,3.62,47.09,7.84,62.06,8.59,30.44,7.35,27.06,7.35,27.06h-8.13c-.14,0-1.35-4.21-1.45-4.47a88.6,88.6,0,0,0-11-21.23c-3-4.22-6.19-8.29-8.91-12.7a69.09,69.09,0,0,1-6.53-14.74c-3.48-10.57-5.47-21.55-7.6-32.45-2.66-13.63-4.84-27.35-6.73-41.11-.5-3.68-1-7.37-1.43-11.06Z" fill="#aaa390"/><path d="M819.46,315.29s-36.47-9.8-67.06,12.55S665.72,403.28,685.33,455s71,81.6,52.55,108.61-57.26,90.47-36.08,108.35,48.56,21.41,48.56,21.41-30.91-9.41-27.77-27.45c0,0,15.83,22.75,36.42,23.92-.94-.05-2.53-3.94-2.82-4.59A24.55,24.55,0,0,1,754.56,672a33.71,33.71,0,0,1,2.27-8.11,44.33,44.33,0,0,1,4.28-7.45A51.72,51.72,0,0,0,765,649c2.35-5.2,4.55-10.59,8.23-15a109.13,109.13,0,0,1,9.38-10.11,107.2,107.2,0,0,0,8.61-8.5c2.5-2.8,5-5.61,7.76-8.19,1.34-1.26,3.55-3.76,5.59-3.77a8.36,8.36,0,0,0,8.16-6.59c1.81-8.25,3.87-27.62.27-30.37-5.29-4-16.08-.75-16.08-.75s-36.71-4.93-46.54-28.17-14-66.67-10.52-85.79,29.61-85.49,68.63-93.63c26.37-5.5,36.47-36.18,36.47-36.18Z"/><path d="M865,606.65s-6.47,14.52-20.1,31.79c-12.48,15.82-33.18,23.8-42.53,42.32-5.33,10.56-8.2,22.18-9.82,33.86-2.94,21.18-7.26,28.82-7.26,28.82l78.27,3s2-37,1.7-40.5c-.27-3.26-14.78-46.92-13.69-57C854.12,626,867,606.6,867,606.6Z" fill="#aaa390"/><path d="M858.68,872.57l5.41-138.27L777.51,738s3.76,9.69,2.07,17.29-24.19,109-16.47,117.26S858.68,872.57,858.68,872.57Z" fill="#aaa390"/><polygon points="894.55 748.25 882.6 873.75 902.12 871 894.55 748.25" fill="#aaa390"/><polygon points="850.65 742.57 862.99 762.39 865.31 706 850.65 742.57" fill="#918b7a"/><path d="M805,729.81c6.16,3.22,29.78.28,33.29-.91,4-1.37-21,10.7-21,10.7S800.9,727.65,805,729.81Z" fill="#918b7a"/><path d="M794,665.31s-6.35,13.14-6,18.24A127,127,0,0,0,790,697.08Z" fill="#edd6c3"/><path d="M781.36,720.63c0-.49,3.45,2.42,3.45,2.42l1.36,14.61S782.8,725.36,781.36,720.63Z" fill="#edd6c3"/><path d="M793.08,586.64s-29.41,74.56-21.77,87.95c0,0-11.62-13.38-7.21-35.15s29-53.68,29-53.68Z"/><polygon points="865.31 706 871.91 662.47 861.96 693.92 865.31 706" fill="#edd6c3"/><path d="M856.45,561.2l-41.52,17.23s.08-13-.89-14.53C814,563.9,828.63,566.91,856.45,561.2Z" fill="#edd6c3"/></g></svg>